<svg xmlns="http://www.w3.org/2000/svg" width="469.118" height="261.063" viewBox="0 0 469.118 261.063">
  <path id="house-middle" d="M469.119,98.81h0a.22.22,0,0,0-.1-.152h0L326.648.05h-.178L143.684,30.06h0L.172,70.782a.178.178,0,0,0-.135.11.22.22,0,0,0,0,.178l.135.474a.229.229,0,0,0,.229.169h.677l.593-.144H1.8l2.439-.3,1.169,5a.246.246,0,0,0,.229.186h.915L81.167,64.194l-.339,45.777-3.523.644a.237.237,0,0,0-.195.229h0l-.33,3.48v.068l-.195.076h-.051l-.3.178-.322.127-.068.042-.288.169-.322.135h-.051l-.3.178-.322.127h0l-2.811,1.541-.322.127h-.051l-.3.178-.322.135h-.059l-.288.169-.322.127h-.059l-.3.178-4.59,2.363-.322.127h0l-.559.161-.246-.152-.373-.152-.3-.178-.373-.152-.3-.186h-.186l-.127-.085a.246.246,0,0,0-.152-.059h-.059l-1.3-.847-.381-.161h-.7l-.271-.271-.415-.186-.3-.186-.339-.2-.3-.178-.373-.152h-.322l-.135-.135-.169-.068h-.093l-.144-.059v-.042a.229.229,0,0,0-.237-.237h-.677l-2.7-.339-12.4,2.363h-.8a.246.246,0,0,0-.186.085l-.322.322a.2.2,0,0,0-.059.152h0v1.211h0l-.339,23.058h-.1l-1.245.144a.13.13,0,0,0-.093.042h0a.237.237,0,0,0-.076.161h0l-.339,6.275a.237.237,0,0,0,.178.246l1.694.423-.339,49.782a.237.237,0,0,0,.2.237l.948.135-6.9,1.287h0a.229.229,0,0,0-.178.161h0a2.024,2.024,0,0,0-.11.652c.051,1.558,1.922,2.151,5.259,2.159L157.3,229.485l-20.23,3.5a.2.2,0,0,0-.119.059h0a.22.22,0,0,0-.059.161h0l-.135,1.321a.237.237,0,0,0,.169.254l2.032.542,127.618,25.793h.1L436.628,233.3a.237.237,0,0,0,.2-.237v-1.55h0a.237.237,0,0,0-.068-.169h0a.22.22,0,0,0-.127-.059l-8.027-1.643.339-46.2.61-.1h.042l1.008-.339a.237.237,0,0,0,.161-.229l-.135-6.08h0a.246.246,0,0,0-.237-.2h-1.448l.135-19.535v-4.877a.229.229,0,0,0-.237-.237h-.152l-.085-.322h0a.237.237,0,0,0-.237-.2h-.847l-5.75-1.423-.847-.135-.847-.2-.847-.135-.847-.2-.847-.135-.847-.2-8.248-1.694h-.474l-1.084-1.27-.593-.381-1.643-1.651-.135-.144-.389-.229-1.846-1.8-.5-.356-1.651-1.694-.2-.195-.423-.195-1.736-1.829-.584-.381-1.634-1.567-.135-.135-.576-.373-1.651-1.694-.1-.169-.11-.085-.339-.135-1.609-1.634-.2-.2-.5-.364-1.694-1.694-.237-.161-.347-.212h-.22V116.245l75.363-12.261.533-.212.135-.161.847-3.226,4.234-.652a.237.237,0,0,0,.195-.229V98.81ZM326.462.49l141.81,98.2L286.257,128.625,144.345,30.4ZM1.7,71.137h-.11l-.593.144H.553V71.2L143.71,30.559l142.2,98.4-.093.135L144,30.974h0a.229.229,0,0,0-.195,0h0ZM6.4,76.006H5.829L4.7,71.137,143.82,31.423l141.768,98.083-.847,2.921-3.116-1.871-1.194-.847-2.481-2.142-7.121-4.615L268.1,121.1l-2.354-1.694-2.236-1.558-.677-.466h0l-2.346-1.694-20.263-13.853-1.016-.677-2.49-1.88h-.068l-.644-.33-.279-.288-.33-.339h0l-7.088-4.861h0l-.847-.508h0L193.831,69.6h0l-1-.669h0l-2.346-1.482-10.652-7.426-1.346-1.008-2.379-1.558-16.58-11.491-1.346-1.008-2.168-1.49-4.234-3.04h0c-3.158-2.744-5.436-4.141-7.011-4.158a1.694,1.694,0,0,0-1.355.567Zm292.512,77.929v.931l-.3,1.473-1.363.169-10.2-16.783,2.862-.567,1.473,3.006.847.754,5.352,8.925.847,1.482h0Zm-.33-20.255v-2.744l.186-.051-.161,2.811Zm2.871,14.912-2.54,4.336-.042.119V137.525h0l.135-3.387h0l.186-3.387,2.041-.279v6.486h0Zm10.356-16.368-2.024,3.184-8.053,1.287v-2.9Zm-10.077,1.092v-2.9l12.439-2.041-1.787,2.888Zm7.723,2.625-7.536,11.923-.152-10.678ZM301.9,148.787h0l8.239-13.023,2.363-3.717a.254.254,0,0,0,0-.068l.186-.44,2.083-3.252,3.988-.584-15.471,25.226-2.6,3.387-1.346-2.54v-.694Zm55.744-21.059h0l.2,11.415-2.456,4.107-.11-15.056h0l.339-3.345a.264.264,0,0,0,0-.085h0a.3.3,0,0,0-.11-.119h0l-.2-.085-.3-2.871,2.676-.4v6.478Zm10.246-5.352-.229-.068,1.38-3.006.44-.059Zm2.168-3.218.508-.085-2.151,3.345h0Zm-2.888,3.091-8.976,1.812v-2.888l10.322-1.77Zm.847.644h.085l-2.024,3.286-.771.127-7.113,1.143v-2.9Zm-2.354,3.794-.618.9.406-.847Zm-.779.127-1.49,3.167-5.081,8.4-.119-10.458Zm-6.63,12.532h0l5.538-9.12h0l2.54-3.692h0l2.447-3.743,2.447-3.819,3.98-.584-16.275,26.42-1.8,2.388-1.16-2.21-.313-1.228Zm29.087-6.215L387,137.838v1.211l.2,2.337v.491l-.39.144-1.838.11v-18.8h0v-3.6l-.322-2.955,2.684-.457Zm-2.65,9.484h.068l2.151-.135.61-.22a.237.237,0,0,0,.161-.22v-.44h.406l2.312.533h0L359.6,147.1l.356-.44h.567a.246.246,0,0,0,.237-.212.212.212,0,0,0,0-.068l.356-.068,1.126-.135,21.584-3.709Zm3.159-10.161.271.169,1.194.991,1.135,1.135,1.228,1.025,1,1,1.49,1.355a1.8,1.8,0,0,0-.584-.135.661.661,0,0,0-.22,0l-4.606-4.09-.457-.517-.059-.051-.432-.381v-.533Zm0-1.355h0l6.266,5.817-.22-.186-1.592-1.473-.271-.271-.373-.322Zm11.271,12.092a.271.271,0,0,0,.169.068h.4l1.279.957.186.186.466.474.169.288.423.288,1.744,1.575-1.194-.508-4.9-2.828-1-.669-3.531-2.032-1.9-1.016-.788-.525-1.914-1.279.11-3.556,4.352,3.861a.245.245,0,0,0,.271,0,.339.339,0,0,1,.152,0c.517,0,1.88.847,3.811,2.684l.474.542h.051l.982.788.11.11v.381a.271.271,0,0,0,.093.246Zm16.936,11.948h-.457a.237.237,0,0,0,0,.474h.542a.229.229,0,0,0,.2-.347l9.594-1.253-.11.229-2.312,1.694h0l-5.267,3.853-.313.186h0l-3.15,2.346h-.042l-.627.432-.051.042-4.691,3.548h0l-.66.466-.525.322-.313-5.546a.262.262,0,0,0-.119-.195.288.288,0,0,0-.237,0l-1.821,1.016c-.584.364-.7,1.3-.737,2.9a39.678,39.678,0,0,0,.262,3.971l-.457.466-2.286,1.956H402.1a.237.237,0,0,0-.22.144l-.169.406-12.575,8.7-.3-3.836.9-.6a.246.246,0,0,0,.11-.22l.169.051h0a.237.237,0,0,0,.246-.1h0l.322-.457a.229.229,0,0,0-.279-.347l-.847.33a.237.237,0,0,0-.144.237.161.161,0,0,0,0,.085h-.33l-.195.1-.474.677-.042.135h0l-27.326,22.109.72-.694.3-.161.72-.711.254-.085.762-.728.288-.169.72-.7.262-.093.754-.72.288-.169.72-.711.263-.085.754-.728.288-.161.66-.779h.237l.186-.093.6-.787h.22l.186-.085.6-.728h.229l.186-.085.6-.788h.229l.178-.085.6-.728h.229l.186-.093.61-.779h.22l.178-.093.6-.72h.237l.186-.093.6-.788h.178a.237.237,0,0,0,.152-.051l38.105-31.695,7.215-1.185-5.216,1.27a.229.229,0,0,0-.178.271.541.541,0,0,0,.051.093Zm11.669,21.3-1.558.263V166.688a.237.237,0,0,0,0-.11l-.313-2.608.135-2.676h0l.2-6.842.263-.525,2.1-.457v3.387Zm.711-5.741-.042,5.707h-.195Zm-2.947-1.126.2-.847v8.087h-.195l.127-4.42h0Zm-.4-.212-1.135-.152v-4.657l1.448-.262.3,2.456Zm-1.27,5.775.119-2.142,1.219-.246-.119,4.234-1.219.144v-1.981Zm-.152-2.54-6.732,1.008h-.059l-1.1.322h0l-5.656.847-2.134-.491v-.847l1.211-.906,15.894-2.667.11,2.371Zm1.626,11.575.415-.059-.2,42.729-.127,6.647-.381-.119-1.516-.3v-4.429l.135-7.088.195-2.21V216.97Zm-1.473,22.33V184.309l1-.135Zm-.212,27.1-81.943,13.362,9.907-8.392,35.243-5.724a.229.229,0,0,0,.2-.229l.127-10.856,17.63,3.48.135,4.336a.237.237,0,0,0,.2.229l2.125.33.076.11a.229.229,0,0,0,.195.1h.051l1.694-.339,1.008-.2a.237.237,0,0,0,.195-.229v-3.091l12.558,2.473v4.327a.237.237,0,0,0,.186.237Zm-71.324,4.378,34.269-28.5.127,12-.135,10.94ZM387,209.086l17.9-14.937.33,18.892-.466,11.728-17.638-3.489Zm18.367-15.327,1.9-1.507.195,30.569h0l-.322,6.774-1.778-.271L405.229,225h0l.474-12Zm2.54,29.078,1.346-32.322.677-.686v39.553l-.847.161-1.533.3h0Zm-.2-30.967,1.058-.923-.923,22.016Zm15.691,25.124v2.329l-.2,2.2-.135,6.825L410.5,225.878v-36.6l4.115-3.463,8.781-1.431Zm-13.286-28-1.16,1.152h0l-1.533,1.338-2.363,1.888L386.685,208.7l-35.311,29.375h0l-10.559,8.942-1.694,1.008-7.333,1.109-.745.1,79.648-66.32.178,3.243a.22.22,0,0,0,.085.169.245.245,0,0,0,.186.051l2.54-.406Zm-80.444,60.469.254.178-.55.135.135-23.21,2.092-1.482v.686h0v1.558h0l.135,3.031h0l-.135,1.99h0v15.242l-1.931,1.482a.229.229,0,0,0-.093.195.237.237,0,0,0,.042.195Zm.364-24.557.169-.042.11-.068.339-.339.8-.66.847-.669.356-.356.66-.525.33-.381.135-.135.288-.161.576-.5.135-.186.271-.11.618-.593.135-.135.3-.161.576-.508.093-.135h.085l.169-.076.669-.669.068-.068h.119l.161-.068.61-.61h0l.169-.068.8-.8h.042l.144-.059,28.164-22.787-22.38,18.714a.2.2,0,0,0-.085.161l-.085.322h-.356l-.152.051L331.627,224.4h0l-2.176,1.541v-.559l.432-.271a.271.271,0,0,0,.1-.152h0a.136.136,0,0,0-.008-.068Zm41.365-10.83a.266.266,0,0,0-.144.347v.059l-.559.127h-.728v-.576l2.379-.423-.085.169Zm.22.847-1.9,1.575.262-.677.923-.745Zm-1.6-1.355V211.7l3.336.669-.644.652Zm14.014-25.657v-.042l-.1-.161,1.846-1.541.1,8.815-.33-2.752a.17.17,0,0,0,0-.059h0a.237.237,0,0,0-.237-.144l-1.228.11v-4.141s-.093-.085-.1-.119Zm-.559-.44-.347.356h0l-2.4,1.863h0l-.991.788h0l-3.006,2.54h0l-2.142,1.8-1.211,1.008h0l-3.015,2.346-.119.085-.279-2.642v-.068l15.327-11,.093,1.279Zm-10.373,11.753h0l1.787.373-1.609,1.507-3.243-.491.169-1.694.3-.212Zm-2.092-.9,2.54-1.973,1.973.406-2.43,1.981Zm2.684.542,2.439-1.981,1.736.246-2.54,2.083Zm2.4-2.473-2.075-.432.754-.627,4.149.889-.567.5Zm-.847-1.448,1.694-1.44,2.54.449h0l1.583.415-1.694,1.456Zm8.358-4.386v.737l-1.075-.161-2.092-.55.567-.457Zm-2.108-.847,1.888-1.5h.22v1.846Zm.491,1.744-2.473,2.007-2.092-.373,2.54-2.159ZM380.1,193.6l2.464-2.007,1.042.161v.474l-2.049,1.736Zm-7.282,7.9-.72.6-2.066-.474v-.55Zm-1.219.965-1.567,1.118v-1.473Zm.7.085h0l1.135-1.008h0l2.024-1.888h0l3.023-2.481h0l1.008-.847h0l2.159-1.829,2.168-1.838.652-.059L369.91,204.624v-.39Zm12.846-9.865.271,2.295-2.066,2.134h0l-.847.652h0l-2.8,2.337h0l-2.346,2.007-1.008.847h0l-3.015,2.54h0l-2.54,1.8h0l-.61.525v-2.744Zm-1.761,8.163-3.074-.652,2.4-1.99h.567Zm-5.927,1.753,4.556.762v.72l-5.081-1.058Zm-6.613,5.208,4.92.948-.11.55-5.369-1.016Zm4.954,2.007h.093l.737-.068-2.871,2.278-3.76-.754v-2.54Zm-2.837,3.582.965-.965,3.582-2.837h0l.847-.39-5.665,4.725Zm5.385-4.708-1.084.508-1.169.085.119-.55,2.337-.356Zm-2.371-.373-4.649-.906,2.032-1.448,6.325,1.245-.745.644Zm-2.142-2.744,2.54-2.168,5.741,1.185a.237.237,0,0,0,.11,0h0l.533-.085-2.667,2.295Zm8.62-1.49v-.728l2.142-.22-1.118.8Zm-.229-1.177-4.327-.728,1.888-1.617,3.548.745v.847a.246.246,0,0,0,.195.237l1.5.246Zm1.583-.982v-.847l-.135-3.175v-.567l2.092-2.159.059-.169.076,6.969-.356.22Zm1.9-18.29-.381.271-15.361,11.008v-1.787l15.911-13.235Zm-16.131,9.2-1.185.9,4.369-3.54Zm-1.143,3.573.051-.135.119-2.117.847-.669v2.134l.2,3.167-.195,2.007a.051.051,0,0,0,0,.051v.982h0v2.193h0v10.779h0v.737l-.3.762-1.694,1.194-.2-19.738Zm-30.747,24.226.457.076-.644.576h0Zm-.169-.508,5.851-4.9h0l.288.847-4.42,3.7Zm.161,1.634h0l1.143-1h0l.677-.542h0l4.59-3.853h0l1.008-.847.66-.457a.228.228,0,0,0,.076-.1h0l.1-.254.508-.254.508.169L332,226.851v-.415l.262-.254h0l.974-.644v-.051Zm6.071-6.859,1.423-1.185h.246l.1.745-.068.152Zm-5.792,25.014L333.465,239l1.888-1.516,6.41,1.253-.644.644Zm2.4.076-1.236.94-.847.1v-.7Zm-5.081-9.061,1.533.356-1.888,1.516-2.871-.61.11-1.694.339-.127Zm-2.252-.915L335.7,227.9l1.99.364-2.447,2.168Zm2.794.55,2.464-2.176,1.592.39-2.591,2.134Zm2.456-2.667h0l-2.075-.39.559-.474,4.149.889-.567.483Zm-1.075-1.245,1.761-1.448,2.54.449h0l1.651.254-1.88,1.617Zm8.315-4.4-.076.55-.982-.11-1.99-.432.491-.389Zm-2.032-.847,1.871-1.6h.068l.11,1.914Zm.44,1.634-2.4,2.108-2.1-.364,2.54-2.168Zm-1.812,2.219,2.388-2.1.923.11.093.567-1.846,1.694Zm3.048-5.927h0l-2.371,2.024h0l-1,.8h0l-3.006,2.54h0l-2.227,1.812h0l-1,.847h0l-3.133,2.464h0l-.169.059-.11-2.608,15.242-12.465.161,2.464-1.8,1.617ZM334.481,233.2l-.423.415-2.041-.288v-.652Zm-.957.847-1.507,1.075V233.8Zm.754.042.042-.042.8-.8,2.346-1.871h0l3.04-2.54h0l1.008-.847h0l2.363-2.032h0l2-1.8.559-.279.517.169L332,236.09v-.39Zm12.964-9.687.161,2.473-1.914,1.761-.982.652-.051.042-3.015,2.54h0l-2.227,1.846-.991.847-3.082,2.54h0l-2.354,1.846h0l-.745.66v-2.93Zm-7.367,9.315,1.761-1.448,3.8.635.3,1.008.144.152.61.22-2.21.33Zm4.158,1.329v.533l-5.182-1,.559-.483ZM342.1,231.9l2.54-2.159.711.135v2.54ZM332.3,240l.686-.61,4.767.948V241l-1.88-.406h0Zm2.092.847-2.379.4v-.8Zm1.431-3.717,2.54-2.108,5.809,1.126h.745l-2.761,2.21Zm8.68-1.448v-.567l2.117-.322-1.084.889Zm1.643-1.965-.288-1.008v-3.777l1.939-1.753.085-.186-.2-3.04a.245.245,0,0,0-.161-.212l-1.016-.339h-.178l-.389.195-.076-.533.127-.957a.136.136,0,0,0,0-.059l-.127-2.32.1-.381,1.846-1.634.076-.195-.2-3.031a.323.323,0,0,0-.051-.135h0a.237.237,0,0,0-.11-.076l-1.016-.339h-.178l-.381.186-.085-.644.1-.4,1.922-1.092v21.644l-.5.5Zm-9.086-12.109h.051L332.99,225.1h0l-.948.322v-.711l5.267-4.412-.33.991a.237.237,0,0,0,.085.3Zm-5.081,20.119,3.8-.635,2.1.457a.212.212,0,0,0,.1,0h0l.423-.051-2.693,2.261-3.743-.754Zm0,1.77,3.286.66-.788.652-2.54.3Zm1.812,1.871-1,.8-.847.144v-.737Zm-1.812,2.371v-.364l1.05-.8h0l1.694-1.338h0l1.211-1.008h0l3.387-2.837h0l2.015-1.541a.1.1,0,0,0,.042-.042l.991-.991,3.387-2.684h0l1.821-1.49h0l.669-.669,2.54-2.2,1.473-1.008h0l1.55-1.346,1.346-1.008h0l3.387-2.837h0l1.694-1.338h0l.982-.982,3.387-2.9,2.058-1.634h0l.66-.533h0l1.219-.847-36.666,30.484Zm18.434-36.259h0l.135,3.175v5.081h0v4.573l-.135,3.04v4.09l-2.1,1.821V211.7l2.159-1.533-.051.2a.264.264,0,0,0,0,.085v.991Zm1.55-1.694,4.708-3.836h0l.847-.982.415-.169a.254.254,0,0,0,.144-.22h0l.085-.093.415-.119.1-.059.542-.542,6.774-4.962h0l-15.157,12.261v-.373l.542-.271a.186.186,0,0,0,.076-.059Zm-.406-.364,1.9-1.456-1.761,1.431Zm15.174-10.847v-.042a.169.169,0,0,0-.11-.076h-.093l.263-.169.195,19.7-.491.39-1.6-.457v-.847l-.135-3.175v-.754l1.939-1.617.093-.195-.212-3.175a.128.128,0,0,0,0-.059.271.271,0,0,0,0-.076h-.068a.246.246,0,0,0-.085,0h0l-1.465.119-.093-.762.127-.965v-2.591a.128.128,0,0,0,0-.059h0l-.068-.178,1.888-1.575.093-.186v-3.175a.229.229,0,0,0-.135-.135Zm-10.39,16.936h0l3.023-2.49h0l1.008-.847h0l2.354-1.812h0l1.965-1.829.847-.068-14.548,11.855v-.39l2.261-1.617h0l.847-.847h0Zm-.212-.44-1.279-.33,2.286-1.99,1.533.237Zm6.4-5.2-1.482-.4,2.312-2.134.923.11.093.7Zm1.854-3.938-1.931-.339,1.787-1.507h.144Zm0,.474-.076.559-.982-.1-1.863-.432.55-.44Zm-1.575.847-2.286,2.117-2.092-.364,2.54-2.159Zm-2.278,2.6h0l1.558.415-1.871,1.431-4.124-.847,1.88-1.448Zm-.788,2.269-.567.491-2.049-.313-2.108-.559.584-.508Zm-3.142.525-2.286,1.99-2.413-.423,2.676-2.1Zm-2.261,2.439h0l1.4.364L354,216.97l-2.947-.61v-1.567l.356-.22Zm-.779,2.278-.449.415-2.058-.288v-.711Zm-.991.847-1.516,1.075v-1.3Zm-1.507,2.659,15.081-12.261.169,2.591-1.939,1.617-.847.669h0l-3.006,2.54h0l-2.125,1.8h0l-1.211,1.008h0l-2.837,2.354h0l-2.54,2h0l-.61.517Zm7.917-2.947,1.694-1.431,3.751.745v.847a.245.245,0,0,0,.178.229l.847.237-2.117.313ZM363,219.247l-.186.576-5.038-.847.737-.618Zm-1.863-3.142,2.54-2.176.584.135.119,2.693Zm-9.238,7.621,4.759.847v.66l-5.318-1Zm4.954,2.007h.068l.8-.068-2.718,2.278-4.073-.754.11-2.54Zm.279-.491v-.686l2.236-.229-1.008.8Zm-.263-1.126-4.479-.788,2.066-1.626,6.232,1.431-.66.652Zm-1.956-2.794,2.388-1.99,5.606.991h.982l-2.8,2.388Zm8.392-1.465.186-.559,2.151-.313-1.194.847Zm3.006-18.1-1.939,1.617h0l-.33.33h0l-2.2,1.871h0l-.991.8h0l-3.015,2.54h0l-2.32,1.8a.153.153,0,0,0-.059,0l-.991.847-3.133,2.464h0l-.169.093-.11-2.65,15.386-12.439Zm-15.386,25.92,3.573.66-.847.652-2.718.3ZM353,229.527l-.931.847-1.143.152V229.8Zm15.013-33.3-1.16,1.414-.965.627h0l-6.867,5.081-.525.517-.415.119-.1.068-.2.195-.059.152-.322.135a.229.229,0,0,0-.085.051l-1.185.788h0l-5.513,4.234h0l-2.54,1.821h-.042l20.162-16.851Zm-36.344,51.882-1.423,1.194-.068-.051Zm79.089-65.854h0l-31.932,26.589.406-.6,1.118-.982,3.387-2.9,1.888-1.355a.143.143,0,0,0,.051-.051h0l.11-.262.474-.3h0l2.346-1.694.093-.152.119-.576,1.135-.754h0l2.015-1.55h.042l.982-.982,3.15-2.684h0l2.024-1.482.042-.042,1-.991,3.556-2.9h0l1.694-1.329h0l.339-.339.313-.313,1.694-1,1.05-1.38,1.126-.8h0l1.694-1.346h0l2.286-1.694Zm-22.16.652v9.806l-.2,3.006v4.048l-.11.55-1.922,1.372-.229-17.935.195-4.293,1.948-1.829.288,3.768v1.507Zm13.625-9.154.161,1.507-4.513.7,3.556-2.9Zm-.449-1.008.093-.085h.339v.457Zm.635,2.989v.627l-4.09,3.573-4.234-.711,3.074-2.659Zm-7.553,16.707h0l-4.488-.906,1.871-1.44,6.351,1.245-.652.644Zm2.295.127-1.2.847H395.1v-.584Zm5.165-11.355-.8.66h0l-3.031,2.49h0l-2.362,1.931h0l-1.008.8h0l-3.048,2.583-2.337,1.8-.059.051-.584.584v-2.828l15.064-12.3.119,2.456Zm.127,1.185v2.54l-3.269-.55,2.54-2.1Zm-6.148,4.319,4.725.94-.1.55-5.123-1.067Zm-6.393,5.2,4.75.957v.533l-5.352-.889Zm2.837-2.236,2.54-2.168,5.733,1.185a.245.245,0,0,0,.11,0h0l.728-.093L399,190.923Zm8.688-1.49.1-.525,1.965-.347-.906.72Zm-.093-.974-4.53-.923,1.888-1.507,3.751.627v.847a.246.246,0,0,0,.195.237l1.473.246Zm1.583-1.169V182.2h0l-.169-.677,1.922-1.8.093-.2.085,6.63-.186.178Zm1.694-9.6a.237.237,0,0,0-.051-.135h0a.3.3,0,0,0-.11-.068l-1.016-.339h-.178l-.33.169v-.627a.11.11,0,0,0,0-.051l-.195-1.8v-1.558l1.9-1.626.135,8.6Zm-1.8.212.567-.288.508.178L389.073,188.67v-.4l2.066-1.617h0l1.2-.847h0l2.159-2.024,2.9-2.354h0l1.185-1.058h0Zm-6.063,4.649-2.439,1.99-4.446-.711,2.752-2.159Zm-3.658-1.27.542-.432,4.234.711-.686.61Zm.779,3.667-1.694,1.609-3.065-.61v-1.651l.254-.076Zm-2.227,1.99-.7.508-1.863-.3v-.72Zm-1.219.906-1.346,1.05v-1.262Zm6.495-10.466h0l-3.506,3.031-1.008.8h0l-3.218,2.54H389.1v-1.058l8.409-5.826Zm-2.083,17.782h.61l-2.6,2.219-3.938-.627.178-2.54Zm-2.447,2.633-.635.635-2.888.483v-1.694Zm-1.414,1.245-1.219.931-.847.1v-.677Zm14.4-32.474c0-1.558.262-2.422.483-2.481l1.5-.847.313,5.546h0l-.135,4.7v11.008h0v.593l-.965,1.287-1.27.745-.195-15.843.474-.466.034-.2a37.456,37.456,0,0,1-.263-4.039Zm2.633,17.638v-.677l1.812-.212-1,.788Zm2.54-1.448-2.54.3V176.8l2.176-1.558,11.313,2.235-7.418,1.338a.178.178,0,0,0-.119.059Zm-2.54-5.3v-1.465l1.558.356Zm3.489-1.194,4.369-.669,7.536,1.507v1.3l-.677.1Zm5.36-.948.169-.051,6.368,1.27v.059Zm1.516-.262,5.148-.771-.1,1.8Zm3.142-12.7-5.741.991,2.3-1.694Zm-2.54-1.321,4.463-3.26.119,4.115Zm6.173,1.583.432.085-.119,2.312-1.694.3L411.478,166.1l-1.025.2h-.263l4.124-3.116Zm-1.245-5.182,1.871-1.338-.178,6.131-.373-.076h-.135l-1.126-.169Zm-.339,8.392v4.5l-10.94-2.1-.576-.5Zm-11.584,2.473-.279.042-.618-.44.356-.068Zm-1.558-.279,1.067.745a.178.178,0,0,0,.11.059l9.89,1.973-6.6,1.135-4.166-.847-.423-.3h0l-1.126-1.389-.11-1.008.5-.347Zm3.142,4.115-2.7.432v-.982Zm-3.167-.72V171.4h-.178l.135-1.3Zm-.483-.39-.178,1.77-1.185.3-.508.127.11-4.3.457-.271.093.847.051.127Zm-1.321,2.54h.068l-.627.466v-.356Zm4.581-18.324h0l-.652.517v.042l-.3.3-.669.466-.686.55-.356.356-.644.449-.364.364-.449.313-.567.559-.135.135h0l-2.2,1.694-1.033.889-1,.8-1.025.847-1,.8-1.025.847-1.008.847-1.016.847-1.008.847-.677.677-.3.178-.068.059-.288.288h0l-.466.33-.364.364-.169.11-.483.339h0l-.322.313-.66.533h0l-.33.322-.542.474-.3.178-.11.2h0l-.593.466-.356.356-.644.449-.364.364-.66.517-.356.356-.644.449-.364.364-.66.517-.356.364-.644.44-.373.364-.652.525-.364.356-.644.449-.364.364-.66.517-.356.356-.644.449-.364.364-.66.525-.356.356-.644.44-.373.373-.652.517-.356.356-.644.449-.373.364-.652.517-.356.356-.652.449-.364.364-.66.525-.356.356-.644.449-.364.356-.66.525-.356.356-.644.449-.364.364-.66.517-.356.364-.644.44-.373.364-.652.525-.356.356-.644.449-.373.356-.652.525-.364.356-.644.449-.364.364-.66.525-.356.347-.644.457-.364.356-.66.525-.356.356-.644.449-.373.364-.652.517-.356.356-.644.449-.373.364-.652.517-.356.364-.644.44-.373.364-.66.525-.347.356-.644.449-.373.364-.66.525-.356.347-.644.449-.364.364-.66.525-.356.356-.644.44-.364.373-.66.517-.356.356-.644.449-.373.364-1,.847-1.008.8-1.016.847-1.008.847-1.016.847-1.008.847-1.025.847-1.008.8-1.016.847-1.008.847-1.016.847-10.161,8.832-1.228-.3h-.085l59.275-49.537h0a.2.2,0,0,0,.051-.1V174.3l.22-.135.1-.119.093-.246.246-.093,3.438-2.735h0l4.378-3.7h0l1.9-1.55,1.8-1.473h0l.669-.542h0l2.007-1.694h0l1.88-1.694.652-.449h0l1.338-1.2h0l2.142-1.8h0l1.016-.847.508-.322.178-.161,1-.847.076-.161,1.694-.787.686.2Zm-84.678,95.161-1.49-.3V237.809a.186.186,0,0,0,0-.068l-.195-2.337.2-3.006v-1.219l.127-.627v-4.183l1.888.271-.186,23.168-.2-.042v-.347a.229.229,0,0,0-.195-.246Zm-15.369-6.071,4.234.847-6.588,1.05Zm-3.2,2.032h-.11l2.481-2.21.237.059Zm3.167-2.5-.8-.195h-.1l.2-.61,14.124,2.761v.737l-7.807-1.5h0Zm.229-1.143,1.109-.279.982-.135h0l2.024-.339,4.971.669h0l4.065.771v1.88Zm1.981-.847h-.119l2.456-2.032Zm4.09-2.9,5.479,1.228-2.447,1.99-4.962-.66-1.27.2Zm3.65,3.328,2.43-1.981,1.042.1v2.54Zm2.379-2.464-6.046-1.346h-.55l-.186-.677,7.875,1.448v.686Zm-.847-3.243,1.761.3.161,1.871-6.927-1.27,1.16-.229.991-.2h0Zm-2.108-.127,3.15-2.761.847.152-.169,2.54-1.761-.3Zm3.116-3.243h-.508l-.076-.66,1.524.1v.72Zm-.906-1.143a.22.22,0,0,0-.152.119h0a.3.3,0,0,0,0,.085.236.236,0,0,0,0,.076l.11.991-4.048,3.455-2.295.466a.136.136,0,0,0-.076,0,.22.22,0,0,0-.11.161.245.245,0,0,0,0,.136l.288,1.042-4.1,3.387-2.1.525h0a.237.237,0,0,0-.169.152h0l-.339,1.016a.237.237,0,0,0,.119.288l-2.727,2.4-41.856,6.7.135-8.154h0l-.135-33.871.119-.491a.2.2,0,0,0,0-.068l.33-15.132,1.152-.186,117.186-19.095-58.961,49.283h0l-.339.474a.2.2,0,0,0-.042.152v5.6Zm-165.732-17.24h0l-.085-.491,15.479,2.752v7.96l-15.521-3.082.127-7.1S158.943,213.608,158.943,213.591Zm-.279-1.016-.491-.3a.2.2,0,0,0-.169,0l-1.744-.339h-.652l-1.042-.584v-.711l.195-.779v-.051a.11.11,0,0,0,0-.051l-.195-.991v-.559l.254-.254a.237.237,0,0,0,.085-.178v-.542l.2-29.1,1.075.161h0l20.526,4.149-.127,8.248-1.694.3a.237.237,0,0,0-.195.229h0l-.33,24.167Zm-9.975,6.266h0a.22.22,0,0,0-.068-.11h0l-.559-.279-.178-2.888,10.652-1.617-.127,6.774-10,1.609v-2.388h.237a.212.212,0,0,0,.178-.085.2.2,0,0,0,.051-.186Zm-52.153-7.486-.635-.1.093-.4,45.506,9.23v.33Zm44.879,9.543-.169,2.422L97.484,214.6l-.847-.279V211.88Zm-43.7-10.585,1.575-.178h.652l.61.195,1.567.339.847.144.847.195.847.135.847.2.847.135.847.2.847.135.847.2.847.135.847.2.847.135.847.195.847.144.847.195.847.135.652.2.906.144.787.195.906.135.787.2.9.135.787.2.9.135.787.195.906.144.787.195.9.144.787.195.9.144.8.195.9.144.788.195.686.135.847.2.847.135.847.2.847.135.847.2.686.135h.457l.279.169h.61l.3.119h.5l.279.169h.618l.3.119h.491l.288.169h.61l.3.119.847.212.906.144.787.195.9.135.533.135-1.854.6ZM80.591,194.9v-1.694l41.7,8.468-20.162,3.5a.246.246,0,0,0-.195.254h0l-21.339-4.3v-6.215Zm-18.705,2.845v6.4l-2.227.288L60,154.68l2.092-.931-.2,44.033ZM59,154.342l.186-5.927.364-.254h0l.517-.322.8-.339h0l1.533-.847h0l2.354-1.152h0l2.024-1.016h0l1.694-.847h0l2.142-1.135,2.108-1.084h0l1.694-.847h0l1-.66,2.346-1.143h0l.66-.322h0l1.854-.847h0l2.261-1.262h0l.525-.33,1.473-.669h0l1.694-.847,2.227-1.152a.2.2,0,0,0,.068-.051l2.092-1.186,1.541-.669h0l1.008-.474h0l2.676-1.541.339-.135L98,128.439h0l2.363-1.152h0l2-1.194,1.541-.677h0l2.024-.847v5.58Zm-1.16-11.076-.152-.246.178-.576h0a.288.288,0,0,0,0-.085l-.195-.635V130.412l.2-1.694v-2.7L58,125.5a.212.212,0,0,0,0-.068v-.847l1.888.373L59.752,145.9h0v1.558l-.347.212-1.541-.279v-4.039a.279.279,0,0,0-.025-.085Zm.991,11.7.728-.152-.339,49.613-1.888-.271v-5.529l.339-43.931,1.05.262Zm13.337-15.327a.237.237,0,0,0-.186.085l-.186.059-3.387-1.761,5.081-2.54,1.448.584.119,3.463Zm1.456.8-1.033.533-.542-.135v-.669l.127-.051Zm-4.234-8.061-.373-.152-.3-.186-.373-.152h-.161l-2.219-1.27-.135-.6,1.287-.669,5.318,2.447-2.269,1.075Zm.279.72-3.878,2v-3.658l2.236.889h.186l.3.119.3.186.364.152Zm-4.234-3.429-3,1.533h-.178l4.581-2.278Zm.059,1.042-.152.262h0v4.234l-2.54,1.262v-5.021l2.642-1.346Zm-2.879,6.469,3.006-1.465h0l4.59-2.363h0l2.811-1.338,1.888-.745v2.54L61,140.675v-2.54Zm12.439-2.54-.059.762-.669-.432ZM66.9,138.287l-1.482.847-2.989,1.524h-.406Zm-1.592,2.286.195,2.473v.237l-2.54-.457V140.9l2.337-1.177v.847Zm-2.591,5.081h0l.8-.051-1.211.584-1.126-.22,1.516-.3Zm.22-.491v-1.829l2.71.483.635.423-1.626.8Zm2.871-4.234,2.676,1.194h.262l-2.54.533h-.059l-.169.051Zm.169,2.54v-.229l.237-.068,1.533.322-.982.508Zm1.38-.542,2.117-.44h.178l-1.245.66Zm2.159-.915-.279-.169-.373-.152h-.271l-2.854-1.262V139.5l2.134-1.211,3.675,1.9v.847a.246.246,0,0,0,.178.229l.186.042-1.406.7Zm5.445-11.271-1.99.788-5.343-2.456,5.394-2.794h.567l.3.119.3.186.9.415Zm-.9-5.038,1-.483-.076.957h0l-.3-.186-.373-.144Zm-12.82,5.5v-2.54l1.575-.94.11-.186,6.63-3.184a.313.313,0,0,0,.1-.11h0l.1-.246,5.343-2.329.169,2.54Zm7.731-7.189.076.076-6.1,2.938.11-2.388,3.54-1.694h.423ZM68,122.6l5.631-.8-3.988,1.736h0a.237.237,0,0,0-.169-.068h-.127l-1.3-.847Zm7.1-1.5-7.138,1.016,7.308-3.658Zm-8.468,1.152a.135.135,0,0,0-.076.059l-.161.161-3.675,1.8-1.27.152L75.163,117.6l.085.339Zm-4.056,2.54-.127,2.617h0l-1.575.94-.11.212v3.057a.237.237,0,0,0,.254.212h0l1.2-.11v5.14l-1.575.948-.11.2v3.04a.246.246,0,0,0,.093.186h0a.212.212,0,0,0,.144,0l1.634-.127v4.09l-2.227.44L60.319,125ZM61.691,146.5l-.915.517-.542-.135V146.2Zm13.828-19.95-.085-.135.127-1.567.186-.44h0v-.085l-.2-3.023.2-3.209a.2.2,0,0,0,0-.135h0l-.127-.567,2.049-1.075-.2,20.534v1.541l-1.9.923-.127-3.463.135-1.541a.2.2,0,0,0,0-.068h0l-.119-.3v-2.989l.135-4.048v-.144Zm15.7,4.234,1.634-.288v.11l-.847.373Zm.1.508-.847.373H89.88l.3-.635Zm-1.313-.771h-.051a.152.152,0,0,0-.076.068h0l-.542,1.143a.246.246,0,0,0,0,.229.237.237,0,0,0,.2.11h.1l-1.363.771-4.175.652h0l-.474.144a.237.237,0,0,0-.169.22v1.016a.237.237,0,0,0,.178.229h.152l-.677.313-.059-.11v-4.759l9.958-5.14.279,1.38-.322,3.125Zm-4.683,3.311,1.617-.254-.847.44Zm.127.517-1.042.542-.542-.135V134.1l.246-.068ZM81.294,136.4h.169l-1.253.66-.991-.229,1.194-.3h0Zm-.677-.373v-.635h.1l.3.076v.491Zm.788-.923a.229.229,0,0,0-.144-.051h0l-.474-.127h-.169l-.119-3,2.024-1.042v4.378h-.847Zm1.211.618h0l-.279.186H81.92l-.042-.212Zm-.11-5.369-2.329,1.194h-.262l6.461-3.218Zm6.173-11.372,4.285.957-.11,1.55-9.662,4.691V121.1l3.218-1.8Zm-.948-.339,5.14-2.54.093,1.694-4.319.779Zm-4.894,2.125-2.346,1.177h-.229l4.234-2.125Zm-.127.584v5.013l-2.075,1.092.186-5.191Zm-2.2,6.715h0l2.54-1.338h0l9.789-4.7.11,2.54-14.04,6.986v-2.54Zm12.473-8.6-3.1-.694,3.1-.55Zm-14.048,2.617v-2.54l1.575-.948h0l12.346-6.046.119,2.54Zm13.913-10.034-12.2,5.97.169-2.54,12.151-6.156Zm-12.4,3.125-.9.127,13.32-6.774.051.322Zm-.144.491-.178,2.625-1.575.948-.119.2v3.04a.237.237,0,0,0,.085.178h.237l1.583-.288-.186,5.326-1.575.94-.119.2v3.057a.237.237,0,0,0,.2.22h.093l1.3-.119.127,3.133v.957l-1.948.483h-.322l.22-20.551.186-.11Zm-2.125,21.432,1.329.313-1.194.55-.423-.127v-.737ZM93.419,115.17l-.127-2.972.135-3.218h0a.322.322,0,0,0,0-.085l-.1-.593,1.871-.965.135,20.416v.051l.178,1.3-2.21,1.27v-.135l.339-3.387-.33-1.694.119-.423-.127-3.108.135-1.863v-1.854l-.135-2.2h0l.127-.39h0a.212.212,0,0,0,.017-.152Zm16.419-7.562v-7.045l.1-.762,1.922.44-.085,24.15-1.939-.44-.161-.635v-.2l.2-4.158h0v-3.912l.135-4.522h0Zm45.438,26.538v5.8l-15.242-2.981-22.626-4.59-.3-.127h-.076L109,130.708h0l-2.227-.474-.288-.119v-5.8Zm-24.43-8.332h-.313l-1.042.144-1.033.2-.669.135H127.2l-.423.186h-.584l-.3.119H125.2l-.33.2-.356.093-.474-.119L123,126.6l.212-.042h.093l.745-.212.974-.127h.508l.745-.212.974-.127,1.033-.2.991-.135,1.033-.2h.754Zm.076,1.279-.11.55h-.965l-.279.161h-.61l-1.287-.195h.567l.423-.178h.5l.533-.144h.474Zm-.728-2.151-1.058.2-1,.135-1.025.2-1,.135-.711.2h-.474l-1.042.144-.711.2h-.068l-.728.144-.483.178-.39-.169-1.084-.195h.415l.593-.144h.423l.737-.212,1.177-.127,1.033-.2,1-.135,1.025-.2,1-.135,1.025-.2,1-.135,1.025-.2h.085l.076.542Zm-8.984-11.855,9.56,1.778v4.776L114.9,116.5v-2.312Zm-6.292.618.1-1.922,4.945,1.042Zm7.79,4.827-8.205-1.583h.144Zm8.265,2.075v2.464h-.288l-2.312-.525h0l-2.5-.474h0l-2.54-.533-8.569-1.829-1.694-.3.169-2.227Zm-.11-8.917-4.022-.847,3.446.669.593.144Zm.11,11.855v.339h-.1l-1.058.2-1,.135-1.025.2-1,.135-1.033.2-1,.135-1.025.2-1.194.135-.72.212h-.4l-.6.144h-.533l-.339.2-.423.1-.627-.127-.906-.169h.559l.618-.22h.39l.728-.144,1.008-.2,1-.135,1.025-.2,1.194-.127,1.042-.212.991-.127,1.033-.2,1-.135,1.025-.2,1-.135h.406Zm-11.542-1.694,1.211.152-5.741,1.025v-.4Zm-4.53.3V120.25l6.774,1.44-2.227-.279Zm7.367,0a.093.093,0,0,0,.068,0l.9-.169,1.135.237-.847.169-1,.135-1.025.2-1,.135-1.025.2-1,.135-1.025.2-1,.135-.711.2h-.406l-.44.085v-.322Zm-7.367,2.125.483-.1h.432l.737-.212.982-.127,1.025-.2,1-.135,1.033-.2.991-.135,1.033-.2.991-.135,1.033-.2,1.16-.127,1.219.3-.847.119-1.025.2-1.2.135-1.033.2-.991.135-1.033.2-1,.127-1.025.212-.677.127h-.483l-.627.22h-.39l-.593.144h-.542l-.279.169H114.9Zm.847.72h.406l.6-.144h.415l.627-.22h.381l.728-.144,1.016-.2,1-.127,1.025-.2,1-.135,1.025-.2,1.194-.135,1.033-.2,1-.135,1.033-.2h.051l1.05.237-.847.178-1,.135-1.025.2-1,.127-1.025.212-1.194.127-1.033.2-1,.135-1.033.2-.669.144h-.423l-.627.212h-.483l-.33.144-.66.195h-.474l-.974-.262Zm3.065,1.211.652.127h0l1.9.339.237.1-3.641-.737Zm12.168-15.047-.593-.135-15.344-3.006-.127-7.274,16.19,3.277Zm-.2.957v2.227l-9.492-1.719h0l-6.385-1.338-1.617-.3.288-2.422Zm-17.452-4.141a.254.254,0,0,0-.135,0h-.051a.178.178,0,0,0-.042.11l-.339,2.9a.229.229,0,0,0,.195.254l1.617.3-.127,2.286v2.54l-1.482.178a.229.229,0,0,0-.195.169h0v.059l-.2,2.684a.229.229,0,0,0,.195.246l1.694.3V124.7l-.313.076-.4-.119-1.516-.3.135-24.176,2.1.39.127,7.333ZM131.44,126.72l-.178-.728.313-.8a.321.321,0,0,0,0-.085h0l-.127-.991v-3.7a.228.228,0,0,0,0-.1l-.178-.423v-7.875l.178-.423h0v-.059l.127-7.333,1.9.432-.135,24.159-1.939-.44-.144-.474.186-.957a.186.186,0,0,0,.017-.135Zm15.936-18.528h-.288l-2.261.339-2.54.474-2.219.339-1.025.2-2.54.423v-4.835l12.9,2.617Zm2.312,0v6.85l-2.032-.39v-6.029Zm-2.5.474v5.927l-2.092-.44v-5.14l2.024-.313Zm-2.54.39v4.971l-2.032-.381v-4.234Zm-2.5.466v4.014l-1.753-.423v-3.277Zm-2.227.356v3.15l-.542-.068v-2.981Zm-1.05.212v2.794l-1.736-.432-.567-1.973Zm-2.252,2.269h-.3l.068-.745Zm16.444,4.234.178,2.473h-.762l-2.54-.669-2.5-.542h0l-2.54-.466-2.5-.542-2.363-.339h0l-.847-.135-2.346-.533-.466-.135h-.051l-1.651-.3.288-2.422Zm-2.888-1.423v-7.045l.432-.085,1.694.288v7.282ZM153.134,132h-.152l-.847.212h-.279l-.677.127-1.16-.229.533-.11,1.143-.195,1-.135h.55Zm.068.8-.8-.178.627-.152h.093Zm-.567-1.609-1.042.144-1.152.2-.686.135h-.288l-.686.195-1.228-.279.61-.119,1-.135,1.025-.2,1-.135,1.16-.2h.762l.093.406Zm-6.249.61h0l1.473.339-3.667-.745Zm-1.27-.72.483-.093h.584l.423-.178h.5l.72-.144,1.016-.2.991-.135h1.084l.508.152-.313.051-1,.135-1.025.2-1,.135-1.033.2-.627.127Zm7.316-1.329.982-.246v.322Zm-1.533-.1h0l-.762.178h-.3l-1.05.135-1.025.2-.677.135H146.5l-.423.178h-.5l-.72.144-.847.2h-.144l-1.169-.254.559-.161h.474l.542-.144h.474l.745-.22.974-.127,1.025-.2,1-.127,1.025-.2,1-.135,1.033-.2.991-.135h.847v.068Zm2.185-4.446-.127,2.312-.44.093-1.634-.457h-.7l-1.863-.533h-.508l-2.007-.466h-.567l-2.108-.525h0l-2.354-.466h0l-2.54-.542h0l-1.8-.457h-.068l-1.77-.3.4-2.422Zm-16.089-4.293V116.33l1.888.432v4.581Zm2.363.525v-4.573l.406.068v4.581Zm.847.152v-4.606l1.888.271v4.767Zm2.363.525v-4.776l2.032.44v1.973l-.432,2.625Zm2.54-2.4v-1.829l2.092.39v1.694l-.313,3.074-1.592-.423-.195-2.871Zm2.54.229v-1.583l2.032.44v1.16l-.313,3.556-1.592-.373Zm2.54,0V118.9l2.092.55v.635l-.313,3.946-1.592-.423Zm2.54.135v-.567h.542v4.683l-.406-.059-.127-4.056Zm-15.547,5.987h.279l.728-.135,1.008-.2,1-.135h.474l.923.186h-.127l-1,.135-1.025.2-1,.127-1.025.212-.677.135h-.186v-.39Zm-.627-.322v-.406l.3-.085h.279l.737-.2h.229l1.008.2-1.008.2-.677.135h-.288Zm.237,1.346.72-.144,1.016-.195.991-.135,1.033-.2.991-.135,1.033-.2h.457l.847.2h0l-1.033.212-1,.127-1.025.2-1,.135-1.033.2-.991.135-.711.212h-.271l-.381.068.1-.474Zm1.3,1.084-.677.135h-.423l-.627.22h0v-.466l.483-.093h.3l.737-.212.982-.135,1.025-.2,1-.135,1.033-.2.991-.127,1.025-.2,1.194-.135h.652l.762.178h-.135l-.991.135-1.033.2-1.194.135-1.033.2-1,.135-1.025.2-1,.135Zm.093,2.015-3.167-.635.55.093h.059l.779.135h0Zm2.54-.2h.415l.745-.212.974-.127,1.219-.2,1.008-.135,1.033-.2.991-.135,1.033-.2,1-.135,1.025-.2,1-.135,1.025-.2h.356l.457-.093.161.5h-.677l-1.05.144-1.025.2-1,.127-1.025.212-1,.127-1.033.2-.991.135-.711.212h-.474l-.542.144h-.474l-.745.212h-.068l-.72.135h-.288l-1.16-.22Zm12.541-14.209-.533-.068V108.4l.533.076Zm-17.215-5.47-.186,2.015-1.152.119a.22.22,0,0,0-.212.2h0l-.339,2.9a.237.237,0,0,0,.195.263l1.694.3v4.767H134.6a.245.245,0,0,0-.068.11h0l-.474,2.9a.237.237,0,0,0,.195.271l1.829.313v2.278l-.195.965a.186.186,0,0,0,0,.068v1.313h-.22l-1.8-.3L134,104.627l2.092.39Zm17.681,14.184V119.3h0l-.195-2.82.144-.246a.3.3,0,0,0,.051-.119h0V108.65l2.024.432-.135,24.3L153.693,133l-.152-.677.186-.754v-.059h0l-.178-.771.271-.381v-.068h0a.237.237,0,0,0,0-.076v-.847h0l-.135-.466-.33-.991.135-2.65.186-.466h0a.159.159,0,1,0,.059-.313ZM111.464,97.6l6.224,1.135.8.2,18.443,3.717,2.363.474.787.186h0l2.337.474h.051l1.99.33.517.195h.042l2.007.339.466.135h0l1.981.33.271.161a.144.144,0,0,0,.1,0h0l2.54.466h0l2.54.533h.051l.974.11v.313h-.3l-.627-.135h-.457l-.279-.169h-.3l-3.243-.711h0l-.779-.127h0l-.847-.195h-.042l-.982-.127-.44-.186h-.745l-.491-.119-.457-.195a.169.169,0,0,0-.093,0H145.2l-.5-.127-.44-.186h-.745l-.491-.127-.457-.195h-.737l-.5-.127-.44-.195h-.635l-.415-.127h0l-.517-.195H138.6l-.44-.127-.525-.195h-.754l-.415-.127-.517-.195h-.762l-.373-.11h0l-.508-.186h-.669l-.068-.076h0a.279.279,0,0,0-.161-.068h-.491l-.771-.313-1.058-.44-.847-.135-.847-.195-.847-.144-.847-.195h-.483l-.3-.119-.694-.212-.915-.135-.788-.2-.9-.144-.787-.195-.9-.144-.8-.195-.9-.135-.787-.2h-.593l-.779-.127-.847-.2-.847-.135-.847-.2-.847-.135-.5-.186-.491-.144-.847-.2-.847-.144h-.533l-.288-.119Zm-1.2-.135a.136.136,0,0,0-.076,0l-.3.119-.6.135-.093-.61V93.8l.11-.279a.144.144,0,0,0,0-.085h0l.339-40.476,1.888-.7-.339,42.2h0v2.718Zm26.928,1.965h0L137.012,99l.533-54,1.9-.652.135,15.513-.339,3.387-.135,39.324-1.922-.364V99.5a.169.169,0,0,0,0-.093Zm-.652-.677L112.7,93.924l.533-41.966,23.837-6.774ZM125.479,97,112.37,94.4h.11Zm-13.252-3.057-.533.178.33-42,.737-.076Zm24.514,5.775v2.413l-18.189-3.675-.8-.195-6.105-1.118V94.72Zm3.277-39.587,15.4,3.082-.288,2.9-2.244-.423-2.54-.542-2.54-.474-2.54-.533-2.5-.474-2.2-.322h0l-.8-.271Zm-.1-15.953.652-.135V59.469l-.542.1Zm88.116,49.655,6.105,4.183-7.308-1.473h-.584l-4.175-.72-.288-.085h-.135l-.076-.1-.135-.093-.542-.135-11.855-2.371h-.059l-13.244-2.7-2.219-.533-.974-.119V86.8ZM192.586,86.21l.322-16.715.55.373V86.125Zm1.346-.127V70.24l32.245,22.389ZM236.6,112.816h0l-.127-3.142.042-.042a.22.22,0,0,0,.085-.161l.195-9.315h0v-.2l2.024,1.541-.33,31.746v3.387l-.339,16.207h0V155.5h-.2l-.847-.195-.635-.381.144-18.765h0v-3.912h0l-.135-.847v-.1h0l-.127-.127.339-18.265ZM248.8,135.332h0l3.031.677h0l13.218,2.71v2.9l-13.9-2.642-.847-.2-3.048-.669-7.426-1.49-.847-.169v-2.9Zm-9.823-2.379.33-31.153.542.356-.339,30.73Zm28.613,28.9h.322l-.347.373-.533-.161-1.363-.347h-.152l-.423-.085a16.851,16.851,0,0,1-4.623-1.465l4.581.847v.279a.246.246,0,0,0,.2.237Zm-2.083-.779V141.9h0v-3.328l.11-.279a.228.228,0,0,0,0-.1l.2-18.121,1.888,1.363-.195,32.084-.135,5.258v2.54Zm30.484-4.488-12.829,2.1-1.016.2h0l-2,.33h0l-.991.135h0l-2.363.339h-.508l-2.413.55-.771.127h-.847l-1.49.3-.3-2.456.339-15.97,15.378-2.439Zm-7.232-13.108,7.926,13.04h-.254Zm65.939,4.065h.44l.754.135-39.418,6.444a.305.305,0,0,0,0-.093.246.246,0,0,0-.237-.237h-.61l21.8-3.675a.22.22,0,0,0-.161.2.237.237,0,0,0,.237.237h.466a.246.246,0,0,0,.246-.237.237.237,0,0,0-.246-.237h-.356l2.422-.406h.61a.229.229,0,0,0,.237.22h.466a.229.229,0,0,0,.237-.237.237.237,0,0,0-.085-.178l.576-.127h.8l1.126.2.212-.068.339-.339a.254.254,0,0,0,.085-.11l.491-.119h.6a.246.246,0,0,0,.22.161h.474a.246.246,0,0,0,.246-.237.426.426,0,0,0,0-.11l2.4-.474h.965l3.065-.542h0Zm-.093-.576V128.574l.2-.059.135,18.121v.432H354.8Zm.847.144v-.44l.347-1,.847,1.694Zm-1.287-.144-.178.11-.931.127h-.042l-3.04.533h-.974l-3.387.677h-.491l-1.406.339-.779.135h-.847l-1.533.339h-.491l-26.038,4.395h-.974l-1.406.339h-.618l-5.445,1.016h-.432l-.737.119L317.444,134.5l36.725-5.783Zm-40.645,7.621-4.319.711a.246.246,0,0,0-.229-.169h-1.355a.237.237,0,0,0-.169.068.229.229,0,0,0-.161-.068h-.237l3.988-.745h.584a.229.229,0,0,0,.229.2h1.668Zm-8.358.847h.542a.229.229,0,0,0,.229.22h.542a.254.254,0,0,0,.169-.068.229.229,0,0,0,.161.068h.483a.228.228,0,0,0,.161-.068h.059l-3.709.61.161-.195.127-.406Zm52.45-7.562h.61l.423-.186h.567l31.966-5.165.135.44.127,4.513-1.16.3-2.684.466-2.159.339h0l-117.7,19.188.186-5.081,7.57-1.321,2.007-.33h.39l.669-.2,3.006-.466,19.586-3.243h0l2.151-.339Zm33.16-6.131v-1.634l.339.229v1.541ZM385.5,173.233v-1.287l4.683-.66-2.7,2.159-.212.076Zm1.448.72-.195.119H385.5v-.364Zm-1.448-2.481v-2.54l9.1-1.355-3.709,3.142Zm0-3.04v-.677l10.966-1.694-1.169.957Zm0-1.16v-1.744l6.893-.982h0l3.387-.677,2.921.339-1.558,1.245Zm2.108-14.785.076.576-.423-.11-1.558-1.245v-.745Zm-1.905-2.125v-1.38l1.8-.279.085.144v3.023Zm0,5.242v-.635l2.024-.161v.55Zm2.024.2v2.583l-1.169.262-.847-.847v-1.694Zm-2.024-1.338v-1.194l1.414.11.61.161v.745Zm.7-1.592-.7-.059v-.508Zm-.415,5.877-.44.076.076-.44Zm.533.39h0l1.431-.33,2.312.533h.1l2.65-.33,1.643.127.652.229L385.491,161V159.3Zm1.694-5.817-.135-.974v-3.734l2.092-.364v10.568l-1.9-.432v-5.081Zm5.081,5.233v-.508l.7.567Zm2.837,1.16.212.7-.754.144h0l-6.063.847-3.988.635v-.542Zm2.024,3.946L395.8,163.4l-3.336.652-2.388-2.278,5.47-.728Zm-8.688-1.8,2.4,2.286-6.342.906v-2.54Zm6.639-.915.457-.093,2.9,2.769-.339.271-.178-.1h0Zm.737-.474-.3-1.058h0a.254.254,0,0,0-.161-.186h0l-1.516-.525-1.567-1.253v-3.065l8.188,7.562-1.694,1.372ZM393.23,153.7h0l-1.744-1.753.1-2.295,11.8,10.627-1.541,1.372Zm-1.66-4.657v-.076l1.2.262,11.22,10.559-.279.195Zm1.558-.127.119-3.98,12.041,10.737.186,2.828-1.109.991Zm12.211,1.77-5.927-5.5,3.108,1.787,2.938,2.608Zm-.059.593v.576l-10.254-9.315,1.592.923.982.652Zm0,1.219v2.54l-12.092-10.78-1.44-1.448-.178-.576v-1.66l1.524.847Zm-13.548-4.606a.246.246,0,0,0,.178-.237l-.119-4.132.991.991-.119,4.234-1.279-.279a.248.248,0,0,0-.288.237v.474l-.135,2.888.068.178,1.761,1.753v4.623l-2.236.279v-10.7Zm-6.512,1.152v8.823l-.195,1.194v15.03L267.661,193.565v-25.4ZM268.28,162.124l.313-.339,1.948-.635h0a.237.237,0,0,0,.237.22h.669a.2.2,0,0,0,.1,0h1.084Zm10.382-2.252.457-.059h2.735l-.415.068-.347.051a.271.271,0,0,0-.161-.059h-2.269Zm-8.425-21.254v3.429h0l-.347,16.19.322,2.54-1.846.61h-.5v-2.6l.144-5.267.195-31.771,2.227,1.507Zm-10.322,20.924-11.008-2.227-.669-.135-1.821-.339h0l-1.694-.339-3.065-.8,9.552-16.267,13.836,2.659v18.426Zm.068.8h-.119a.169.169,0,0,0-.093,0,.228.228,0,0,0-.1,0h-.745l-12.854-2.54h1.1a.178.178,0,0,0,.1,0,.229.229,0,0,0,.1,0h.677a.246.246,0,0,0,.2-.119l.559.119,10.881,2.2a1.4,1.4,0,0,0,.271.364Zm-15.174-3.04a.246.246,0,0,0-.229.178l-.847-.178Zm-4.463-6.774.144-.11,6.774-11.855,2.456.55-.711.7-7.621,13.9-1.541,2.1-1.16-.178h-.051v-2.676l.94-.948.059-.11.3-1.211Zm-.364-.4V137.127l6.825,1.363-6.681,11.652Zm10.305-10.915.44.1-9.577,16.3-.66.1,1.338-1.77L249.4,140.09ZM239.9,156.272h.076l1.3-.195,2.21.576-.957.144a.229.229,0,0,0-.229-.178h-.677a.229.229,0,0,0-.229.212l-4.429-.889h1.346l.144.093h.1Zm25.268-18.409-11.686-2.244,9.967-17.257,1.914,1.338Zm-12.194-2.312h-.635L262.8,117.9l.288.195Zm-1.194,0-2.363-.525,11.008-18.79,1.973,1.414Zm-2.71-.847-9.094-1.753.33-30.425,19.722,13.489Zm-9.569,2.346v13.421l-.313,1.253-.55.55.322-15.335ZM231.3,154.833l-58.8-11.719,2.439-.423.093.449a.237.237,0,0,0,.195.195l2.346.33h.076l1.177-.135,10.576,2.117v.347a.237.237,0,0,0,.2.229l2.363.339h1.694l.288.11h.567l2.642.66.847.2,4.869,1.016,1.694.339.889.135.788.2.9.135h.72l12.033,2.54h-.085a.246.246,0,0,0-.237.237.237.237,0,0,0,.237.237h.542a.271.271,0,0,0,.169-.068.229.229,0,0,0,.161.068h.483a.22.22,0,0,0,.2-.161h.669l10.068,2.134a.3.3,0,0,0,0,.076h-.584a.246.246,0,0,0-.237.237.28.28,0,0,0,.017.186Zm-60.316-11.855h0l-.135,5.606a.229.229,0,0,0,.186.237l5.885,1.109v5.589l-1.262-.271h0l-3.04-.339H172.5a.229.229,0,0,0-.085.068h0a.093.093,0,0,0,0,.059.212.212,0,0,0,0,.068l-.474,23.947a.246.246,0,0,0,.2.246l2.363.339,2.295.491v1.211l-19.594-3.827-.186-1.854V163.648l.2-10.6-.2-4.234v-3.26l.246-.254a.262.262,0,0,0,.076-.093h0l.161-4.632,8.375-1.312.186-.127.254-.517,8.739,1.812-.119,1.77-3.726.644h-.11a.347.347,0,0,0-.059.093h0a.894.894,0,0,0-.059.093Zm6.2,16.571h0v-3.311l.169-.279h0a.2.2,0,0,0,0-.119v-5.784l15.318,3.218.144.246a.237.237,0,0,0,.322.085.22.22,0,0,0,.1-.22l43.77,8.781-.195,14.717-43.677-8.849-.152-.152-.169-.068h-.127l-2.879-.339a.288.288,0,0,0-.169.051h0l-.474.339-.093.186v1.219l.339,5.411-.483,18.722a.2.2,0,0,0-.093-.051h0l-11.77-2.659.135-8.468h0v-5.538h0l-.135-.847v-1.8l.135-14.4Zm75.262,46.9,1.279.246h.042l13.04,2.65v.076Zm13.218,3.235-25.818,4.234v-1.414l.457-8.146Zm-24.557-5.927-1.092.135a.229.229,0,0,0-.195.195h0l-.33,5.877.127-32.33a.068.068,0,0,0,0-.042.288.288,0,0,0-.042-.119h-.051c-.051,0-.042-.042-.068-.051l-2.176-.491.195-14.692.262.076,15.682,43.863Zm-1.973-25.835-.127,34.506v1.846l-.728.2.322-36.488Zm-1.008.059-.322,36.733a.246.246,0,0,0,0,.076V216.3l-.119,1.694-1.778-.271V213.4a.228.228,0,0,0,0-.1h0l-.093-.144.135-4.979h0l.339-27.478h0V177.62Zm-45.6,31.009h0l-.957-.279v-2.76h.406l42.585,9-6.774,1.321Zm33.914,7.486-4.081.618-29.764-6.063h0l.11-1.516Zm-36.9-47.242v-1.075l.288-.2,1.88.5h.059l-.195,3.243h0l-.483,33.956h0v2.879l-1.888-.373v-7.231l.677-26.335Zm2.5,2.828.745.2-.339,33.024-.474.144h-.4Zm-.779,37.047h0l.965.279-.1,1.431-3.108-.584.152-1.55Zm1.694-3.836.339-32.906,1.55.254-.33,32.364-1.16.288Zm.4.474h0l42.119,8.595v.33Zm1.1-.262.3-.076,1.092.195.669.135h.229l38.749,7.926v.186Zm30.238,0v2.828l-.33.406.119-12.456.076.076v5.64Zm.423,3.04,4.894-6.063,5.479,5.809-.119,4.657-11.093-3.336.042-.076Zm-.085-6.571v-5.081l4.657,5.259-4.522,5.606V205.5Zm.847,8.62-5.648-1.414,3.387.584.068.093a.229.229,0,0,0,.127.11h0Zm-2.363-1.939h-.144l-.8-.135h-.66l-.432-.186h-.627l-.61-.127-.449-.195h-.635l-.6-.127-.449-.195h-.254l-.3-.119h-.931l-.61-.195h-.229l-.415-.119-.3-.169-.076-.042h-.559l-.288-.119h-.5l-.262-.152a.263.263,0,0,0-.161-.051h-.474l-.279-.11h-.059l-.652-.195h-.847l-.33-.085.195-10.28h0l.135-9.086h.373l.288.169h.61l.3.119h.5l.279.169h.567l.059.068.169.068h.288l.474.169a.28.28,0,0,0,.119,0h.576l.068.059.161.076h.339l.423.169a.279.279,0,0,0,.119,0h.567l6.283,7.274Zm-8.62-22.948h-.55l-.3-.119h-.559l-.279-.161a.212.212,0,0,0-.119,0h-.432l-.3-.11h0l-.677-.2h-.847v-3.878l4.234,4.683Zm-3.133.5-1.694-.279v-.076Zm-1.406.567v6.317l-.059,4.31v-10.61Zm.991,20.712.5.186h.169l16.749,4.183-27.055-5.555,7.494.847h.33Zm-2.185-22.863h0l-.847-.212h-.931l-.627-.127-.432-.195h-.627l-.635-.127-.423-.195h-.593l-.288-.119-.474-.195H202.7l-.3-.119h-.864l-.5-.186-.347-.22h-.5l-.271-.152a.212.212,0,0,0-.127-.042h-.5l-.279-.119a.22.22,0,0,0-.127,0h-.39l-.279-.169a.093.093,0,0,0-.068,0h0l-.3-.059,9.78-4.945,1.694,2.142Zm.2,2.439-.33,17.85-12.143-20.856h.3l.3.119h.627l.22.135h.55l.288.119h.61l.237.135.127.042h.466l.33.051.847.169.44.11.61.093.517.1.567.144.762.119h.237l.694.178.9.135h0l2.684.644Zm-12.7-4.666h0l-.271.169h-.474a.237.237,0,0,0-.237.212.246.246,0,0,0,.195.254l5.538,1.135h.246l.6.195h.271l.415.127h.4l.457.186h.423l.381.119h0l.737.229-9.408-1.838h-.144l-.042.059v.093h0l-.135,9.586h0l.135,8.984a.237.237,0,0,0,.474,0v-18.13h0l.1.119h0l.119.119L209,205.775l.135.33a.229.229,0,0,0,.186.144v.339h-.1l-12.465-1.346h-.229l-.627-.127-.965-.169.339-32.262,10.238,2.151,1.778,2.075Zm33.5,19.628h0l-5.182-5.86h0l-.525-.533-.457-.457h0l-6.376-7.384a.22.22,0,0,0-.119-.093h0l-.432-.127v-.093a.254.254,0,0,0-.051-.262l-.33-.322h0l-.127-.127h-.068l-.4-.254V186.3l-.068-.161-.135-.144-5.081-5.589-.322-.449h0l-.051-.051-.313-.313-.33-.339-1.88-2.346-1.583-1.846,29.519,5.927-.33,26.7Zm-24.463-27.563-10.6-2.227-2.032-.339-1.008-.279.169-2.913,43.575,8.883v2.9Zm-16.936,26.572v7.4l-.186,1.846-.61.1h-.288l.2-16.444.686-.076Zm-6.7-8.73-5.369-1.143.135-.042Zm-5.445-16.216.051.322-1.084-.169Zm-.754-.364.711-1v.889Zm.711-1.8-.737,1.033v-7.909l.195-7.3.677.076Zm-.728-14.7h0l-.8-.169-.178-2.9,1.871.271v2.9Zm-.847.322.542.1-.195,7.367h0l-.135,8.84-.491.246Zm0,17.063,1.694.271v2.879l-2.024-.44v-.6Zm-.779,2.125v.5l-1.88-.262.457-23.439,1.575.517.186,3.2h0l-.339,19.476ZM175.227,79.6v3.9l-.2,19.036v3.387l-.3.085a.229.229,0,0,0-.169.229v.847l.127,3.565-1.88-.381.33-36.666,1.9.271v3.3Zm-.508,31.576.457,3.082-16.546-3.277.169-2.3,1.939-.3,11.779,2.363h0Zm-8.84,21.17h-.051l-1.321-.135-5.69-1.169v-.635l4.92.957.677.135h.711l9.89,1.981v.737Zm9.145,2.312v5.25l-8.654-1.787-.313-5.258Zm-15.242-2.794h-.948v-.347l3.98.847h-.457l-.288-.119h0a.186.186,0,0,0-.1,0Zm1.27.677h-.288l-1.05.135-.711.212h-.169v-.449l.584-.093h.33ZM165.2,131h-.728l-.627-.127-5.013-.974v-7.909l-.195-10.517,16.605,3.286-.22,18.2Zm-4.463-23.1h-.051l-2.125.33-2.286.3v-.762l.322-.085h.652a.11.11,0,0,0,.076,0l.644-.186,1-.135h0l1.008-.2.771-.127h.847a.169.169,0,0,0,.093,0h0l.449-.186,5.208-.754-.195.652-5.411.965Zm-2.4.847-.178,2.413h0l.195,10.788v8.1h0v2.947l-.11.178-1.854.3-.254-.11.127-24.421Zm-1.541,25.59,8.807-1.482.313,5.411-.254.517-8.468,1.329h-.593Zm22.287,8.722v-18.29l10.331,2.134V145.12Zm36.564-38.105-4.962-.931h-.051a.263.263,0,0,0-.195.051h-.051a.144.144,0,0,0-.068-.051l-5.258-1.143h0l-.466-.144,5.6.931h0l.042.051.042.051h0Zm-4.8-2.193.178-4.784v4.1Zm1.5,22.863.55.144h.152l16.013,4.005-27.1-5.513,7.934.847h.5Zm-1.524-1.253v-8.8l.2,8.248v.449a.152.152,0,0,0-.085,0Zm.474-8.764.2-10.619v-.093l.322.127h.9l.847.135.584.178.093.093.169.068h.576l.135.135.169.068h.3l.449.127h.635l.119.11a.229.229,0,0,0,.186.093h.576l.068.068.169.068h.576l.127.135.169.068h.576l.068.068a.246.246,0,0,0,.195.068h.55l.135.135a.22.22,0,0,0,.127.059h.466l.3.119h.669l.11.11h0a.229.229,0,0,0,.169.076h.576l.059.051h.1l1.3.195h.051v.55l-.33,18.705h-.957l-.635-.127-.423-.186h-.635l-.627-.127-.423-.186h-.635l-.627-.127-.432-.186h-.627l-.635-.135-.262-.169-.119-.042h-.432l-.288-.119-.694-.2h-.567l-.3-.119h-.491l-.279-.169h-.618l-.3-.119h-.5l-.279-.169h-.559v-.44Zm14.124,11.3h0l10.7-13.311-.322,17.359-10.89-3.328v-.059Zm-.39-.94.178-10.576v4.869Zm.483.068.169-2.981V107.7h.051l.3.119,2.4.356h.042l.762.186.8.127.085.119.195.1h.6l.144.093h.686l.059.093.195.11h.61l.135.093.135.042h.55l.051.076a.229.229,0,0,0,.212.127h.491l.3.119h.5l.271.161a.212.212,0,0,0,.127.042h.644l.127,3.031Zm10.636,6.452v.059l-13.193-2.718Zm-2.727-23.854h0l-.66-.195h-.2l-.627-.127h-.229l-.982-.322-.449-.195-5.411-.847-.051-.059v-.093l.186-.076a.262.262,0,0,0,.152-.186h.169l.33-.127h0l10.644-5.741-.161,8.586Zm-6.173,20.2-5.513-1.38,2.642.542h.144ZM224,105.576h-.449l-.6-.186h0l-.457-.135h-.635l-.6-.195h0l-.457-.135h-.635l-.61-.186h0l-.457-.127a.152.152,0,0,0-.085,0h-.483l-.644-.195h0l-.313-.135h-.491l-.288-.169H216.2l-.288-.119h0l-.686-.2-.847-.144-.847-.195h-.483l-.3-.119h-.567l-.279-.169h-.356V94.855h.677l.542.119.313.076.279.051,1.363.279.169.11h.508l.135.135.169.068h.567l.059.051a.229.229,0,0,0,.178.085h.576l.135.135.169.068h.576l.068.059.169.076h.474l.271.161a.212.212,0,0,0,.127,0h.432l.3.119h.66l.119.119a.246.246,0,0,0,.186.085h.618a.229.229,0,0,0,.144.085h0l2.828.508v.135Zm-24.785-3.243.847.135.788.195.9.144.8.195.8.127.076.119.195.1h.6l.144.093h.677l.059.093a.237.237,0,0,0,.2.11h.61l.135.093h0a.263.263,0,0,0,.1,0h.55l.068.093h0a.212.212,0,0,0,.169.076h.533l.288.119h.771l.754.195.7.271v.313l-.322,18.053-12.236-20.966.22.093Zm-.542-.72,3.1.517h.135l.254.076h-.347Zm11.144,1.058h-.44l-.627-.127-.432-.186h0a.322.322,0,0,0-.085,0h-.542l-.61-.119h0l-.423-.186h0a.152.152,0,0,0-.085,0h-.55l-.627-.127-.474-.3a.271.271,0,0,0-.119,0h-.533l-.627-.135-.246-.152a.229.229,0,0,0-.144-.051h-.432l-.288-.119h0a.186.186,0,0,0-.093,0h-.474l-.254-.152a.2.2,0,0,0-.144-.051h0l-.6-.135-.847-.195h-.55l-.3-.119h-.5l-.279-.169h-.262L209.9,94.474l.051.085ZM197.455,100.2a.186.186,0,0,0-.085.076l-.085.076-.279.178-.517.127a.237.237,0,0,0-.059.432l.237.144h-.373a.229.229,0,0,0-.085.186v8.468a.229.229,0,0,0,.237.237.237.237,0,0,0,.237-.229l.127-7.824.262.212,12.7,21.7.127.3a.22.22,0,0,0,.186.135v.22h-.1L197.175,123.3l-1.473-.119.339-32.245,13.015,2.642.847.432Zm-.4,23.54,38.952,7.934.051.313-41.551-8.248.847-.135Zm-1.9-.576-1.753.262.339-33.024,1.753.432Zm40.976,9.789v2.9l-42.915-8.713h-.042l-.8-.161v-2.9Zm-43.186-5.394v18.477h-.728l.127-18.587Zm39.231,27.41a.22.22,0,0,0,.2-.152l1,.449-1.465-.3ZM222.1,151.8h-.593l-13.548-2.9h-.72l-.847-.135-.787-.195-.9-.144-1.694-.339-4.869-1.016-.847-.2-2.7-.669h-.483l-.3-.119h-.39V127.677l42.7,8.663L236,154.74l-.373-.11h0l-1.694-.339Zm13.43,3.311.61.178.246.144-.406.076a.246.246,0,0,0-.186.237l-2.21-.44Zm.8-55.041-10.534,5.69v-5.411l.178-2.752,4.369.762.076.119.2.11h.6l.144.093h.652l.068.093.195.11h.5l.288.119h.644l.059.085a.246.246,0,0,0,.2.119h.593l.127.085a.262.262,0,0,0,.11.051l1.49.3Zm-43.753-9.857.677.085-.339,33.219-.533.068Zm-.474-3.641h0v3.387h0l-.212,33.871h0v3.387l-.135,18.832-1.888-.271V126.711h0l.135-3.387a.381.381,0,0,0,0-.093l-.127-.483.652-54.694,1.9,1.185Zm-2.693,35.98-10.331-1.939.847-59.927,10.161,7.1Zm-10.8-1.939-.542.11.466-61.027.847.66Zm10.923,2.955-.11,2.9-10.534-2.176-.847-.11V121.3Zm-10.923,1.16v18.35l-.737.085.195-18.5Zm-1.016-3.717V124.4h0l-.195,18.714-1.939-.279-.093-.474.135-2.1v-7h0l.2-18.7h0l-.533-3.548v-.076l.339-4.776h0v-3.582l.2-19.036V79.6l-.2-2.379V73.838l.432-.271h0a.212.212,0,0,0,.076-.161l.119-15.335,1.931,1.211Zm-2.024-47.928-1.617-.254h-.11l-1.016.339a.237.237,0,0,0-.161.237l-.339,36.826L162.906,108l4.5-.847a.254.254,0,0,0,.186-.161l.339-1.152h0a.212.212,0,0,0-.068-.2l-.178-.178h0l-.322-.322h0l-.11-.059h0l-1.821-.474h-.1l-6.342,1.1.635-59.122L175.71,57.733ZM158.478,105.72l-.533.11.33-60.215.847.66Zm.262.432h0l6.563-1.143.686.178H165.5l-.542.152h-.474l-.745.212h-.491l-.3.119H162.2l-.288.169h-.694l-.3.119h-.754l-.279.169h-.61l-.6.144-.457.186h-.965l-.728.135h-.051v-.229l1.253-.11h0Zm-1.27-.254-1.245.119-.982-.11v-.669h0l.2-10.932.135-11.855V66.361l.33-3.387h0l.2-18.926,1.694,1.16Zm-2.024-43.186-14.4-3.26V43.972l10.525-3.1,4.065,2.9Zm-.677,42.5h0v.644l-2.024-.432v-.288h0l.339-37.8V66.226l2.032.381v1.016L154.642,79.1Zm-2.54-.135h0v.186l-2.092-.39.339-30.188h0V65.692l2.1.44v1.16l-.533,11.262Zm-2.219-39.5V74.6l-.381.262-.093.195v3.175l-.2,26.386-1.558-.254.237-29.841h0V65.21Zm-2.93,9.052-.11.2v2.9l-.1,26.428-1.55-.254.135-29.383V64.676l2.092.44V74.38Zm.423.3-.161,29.332h0l.135-26.5V74.982Zm-2.938-.288-.093.195v2.363l-.2,26.394-1.55-.263.229-23.718V64.2l2.032.381V74.4Zm.347,6.563-.1,22.533h-.068Zm-2.473-17.1V79.6l-.195,23.71-1.9-.381.339-39.037Zm-2.227-.373-.33,39.037-.339-.085.178-39.1Zm15.767,70.427h0l.3.119-.195,5.784-.347-.059v-5.843Zm.271,6.41h.7l-.186,4.234L140.213,141.4v-3.912l15.242,2.981h0ZM147.6,214.243l-.957-.322-.195-.076h.2l.3-.119h.584l.432-.186h.491l.72-.144,1.016-.2,1-.127,1.025-.2,1.135-.135,1.033-.2.991-.135h.847l.567.11Zm10.754-1.169.059.339-10.636,1.617v-.33Zm-10.864,5.174-44.744-9.213v-2.363l1.541.288,2.371.339,4.717,1.008,7.291,1.49,2.363.533,2.379.347,4.844,1.008,4.725,1.008,2.371.474,2.354.542,2.388.339,2.54.669,2.4.347,2.3.44Zm6.774-6.215-1.025.2-1.135.127-1.025.212-1,.127-1.033.212-.669.127h-.593l-.423.186h-.576l-.288.169h-.525l-.8.178-1.092-.195h0l.847-.2,1.185-.127.72-.212h.406l.593-.144h.423l.618-.22h.39l.72-.135,1.016-.2,1-.135,1.025-.2,1-.135h.237l.508.279ZM78.686,146.06h0l-2.227.279,2.2-1.033,8.027-1.321.2.406-.212.33-5.927,1Zm.847.669-5.648.94L75.061,147l3.633-.466Zm23.5-22.016,2.286-.415-1.448.61Zm.11.517-.847.364h-.449l.186-.627Zm-1.321-.779h-.051a.237.237,0,0,0-.068.093h0l-.339,1.143a.263.263,0,0,0,0,.212.229.229,0,0,0,.152.093l-1.253.745-1.694.119-.119-4.132,2.295-1.245,6,1.135.5.195h.22l1.338.322-2.058.364h0Zm-4.75,3.277,1.253-.313.8-.051-1.2.584Zm.195.533-1.245.6h0l-.119-.915h.237Zm6.046-11.8h.051l2.032-.94,3.988.754v2.422l-3.074-.618h-.119l-1.55.339-7.833,4.039-.119-2.337,1.694-1.126Zm-4.8,1.905v-1.236l3.336-.457Zm10.729,4.479-1.753-.415H107.3l-.457-.178-5.462-1.042,4.945-2.676,3.091.618Zm.11,1.033-.974-.119.864-.119Zm-5.8-4.386-3.015,1.609-2.456,1.321h-.3Zm7.367,12.067h0V131.5l5.487,1.05-23.862,12.49h-.415l-4.776-.847-.279-.567h0a.237.237,0,0,0-.152-.119h0l-.847-.2L93,142.157a.246.246,0,0,0,.195-.262l-.135-1.211a.22.22,0,0,0-.059-.144.3.3,0,0,0-.127-.068l-.991-.212,7.062-1.143a.245.245,0,0,0,.152-.093.279.279,0,0,0,0-.178l-.2-1.219v-.051h0a.254.254,0,0,0-.152-.11l-.957-.2,7.02-1.152a.237.237,0,0,0,.2-.229v-1.245h0a.2.2,0,0,0-.11-.152h-.076l-1.067-.212,7.02-1.143a.246.246,0,0,0,.2-.229v-1.236Zm28.172,14.031.847.22-.466,58.343-.745.085.2-49.706v-1.406l.432-.618.042-.144ZM140.5,204.6l2.185.33h0l2.54.466h0l2.54.542h0l2.464.466h0l2.54.542,1.643.423v.085l-2.219-.3-2.54-.542-2.5-.474h0l-2-.533h-.127l-.61.178-1.617-.517h0l-.491-.119h-.051l-2.007-.33-.618-.2h.847Zm-.55-.474.466-58.216h.2l-.339,58.174Zm2.693-26.428h0v20.052l-.135,2.888v3.794l-1.753-.271.339-58.131,1.888.271v.339l-.474,11.465Zm.339,26.809v-3.811l.135-2.9V177.7h0l.339-31.051v-.254l1.761.423L145.344,165v5.081l-.33,30.391v4.454Zm2.7-57.581,2.032.39.195,13.642v9.315l-.33,30.382v4.776l-2.1-.44v-4.53l.33-30.382v-5.081Zm2.54.483,2.092.44.127,10.61v11.948l-.339,30.247v5.259l-2.024-.39v-4.827l.339-30.391v-9.315Zm2.363,58.6v-5.309l.33-30.247v-12l.2-10.4,1.694.271.195,10.8V170.4l-.339,30.391v5.648ZM138.638,145.29h0l.339,7.011-.432.61-.042.135v1.482l-.2,49.731h-.406l-1.482-.415.2-49.613.119-.288h0V153.9h0l.33-12.194,1.753.423-.195,3.175-.051-.025Zm-1.778-4.149h0a.211.211,0,0,0-.127,0v.042a.178.178,0,0,0-.059.093h0l-.339,12.211L93.919,144.9l23.651-12.151,22.347,4.539v3.946ZM110.474,132.6l-8.1,1.321h0l-2.083.279,2.075-1.042,8.129-1.3Zm-7.054,2-5.758.906,1.3-.652,3.438-.466Zm.373-2.142,1.575-.779,2.955-.33,1.05.212Zm2.43-1.346.618-.423,1.109.237Zm-1.033.135-3.031,1.482h0l-3.387,1.694-1.219.61,8.569-4.429Zm-.66,3.658v.737l-8.011,1.313h0l-2.235.3,2.007-1.05Zm-8.019,2.54.906.195-5.69.915,1.3-.644Zm1.981.508.127.745-8.044,1.313h0l-2.21.3,1.973-1.05Zm-7.917,2.54.948.2-5.673.906,1.3-.644Zm2.032.508.085.745-7.884,1.313h0l-2.244.3,1.821-1.092Zm-6.944,2.727-5.529.906,1.27-.635,3.387-.466Zm-4.446-.169h0l-2.676,1.329h0l-.644.3,5.233-2.7Zm-.322,45.8V169.287l.135-2.693v-8.688l-.068-.169-.051-.051.119-.9V155.46l-.11-.288.127-2.108v-4.234h0v-.847l.2-1.177h0a.313.313,0,0,0,0-.093l-.135-.567,5.817-.965.161-.11.254-.406,4.776.847h0l44.033,8.874-.2,49.4h-.466l-2.456-.525h0l-2.54-.466h0l-2.354-.533h0l-2.024-.339h-.788l-1.694-.466-43.008-8.764v-.686Zm43.4,12.761h-.127l-1,.127-1.025.212-1,.135-1.025.195-1.2.135-1.033.2-1.025.11-1.033.2-1,.135-1.025.2-1,.135-1.025.2-.677.135h-.423l-.627.22h-.39l-1.042.135-.711.212h-.559l-.3.119h-.432l-1.058.212-.677.127h-.728l19.425-3.387Zm-16.089,4h.169l.72-.144,1.008-.2h.517l.3-.119h.584l.432-.178h.491l.542-.144h.474l.737-.212.974-.127,1.033-.2,1-.135,1.16-.2,1-.135.906-.229,1-.135,1.033-.2.991-.135,1.033-.2,1.025-.169,1.025-.2,1-.127.652-.195,1.2.271-1.583.262-1.152.2-1.008.135-1.025.2-1,.135-1.033.2-.991.135-1.033.2-.991.127-1.033.212-1,.127-1.025.212-1.194.127-.72.212h-.4l-.6.144h-.533l-.262.152h-.474l-1.042.135-.711.212h-.119l-1,.135-1.152-.144h.076Zm3.065.33.982-.127h.627l.279-.169h.313l.593-.144h.415l.745-.212,1.177-.127,1.033-.212.991-.127,1.033-.2,1-.135,1.025-.2,1-.135,1.025-.2,1-.135,1.033-.2.991-.135,1.16-.2,2.024-.339.635-.127,1.27.237-.762.1-1.025.2-1,.135-1.025.2-1,.135-1.033.2-1.194.127-1.033.212-1,.127-1.025.212-1,.127-1.025.2-1,.135-.711.212h-.406l-.593.135h-.542l-.279.161h-.61l-.915.144-1.025.2-.8.1-.356.195h-.618l-.948-.271Zm2.337.55,1.025-.2.847-.135h.652l.279-.169h.449l.593-.135h.415l.745-.22.974-.119,1.033-.212.991-.135,1.033-.2.991-.127,1.033-.2L125.86,205l1.033-.2,1-.135,1.025-.2,1-.135,1.025-.2,1-.135.982-.195,1.016.22-.923.186-1,.135-1.033.2-.991.127-1.033.212-.991.127-1.033.212-1,.127-1.025.2-1,.135-1.025.2-1.135.135-1.033.2-.669.135h-.593l-.423.178h-.483l-.542.152h-.474l-.119.042-.279.161h-.415l-1.042.144-.711.2-.3.119-.847-.127h-.669l-.279-.119Zm6.961,1.482.8-.135,1.025-.2h.474l.3-.119h.466l.618-.22h.39l.728-.144,1.008-.2,1-.127,1.025-.2,1-.135,1.228-.2,1-.135,1.033-.2.991-.135,1.033-.2,1-.127,1.025-.212,1-.135,1.025-.2,1-.127h.423l.957.161L140,205.64l-1.219.2-1,.135-1.033.2-.991.135-1.033.2-1,.135-1.025.2-1,.135-1.025.2-1,.135-1.033.195-1.126.135-.72.212h-.466l-.542.144h-.584l-.279.169h-.7l-.3.119h-.423l-.931.2-.8.135-.517.186-1.194-.313Zm2.159.542.889-.2h.508l.3-.119h.754l.279-.169h.474l.533-.144h.483l.737-.212,1.109-.135,1.033-.195,1-.135,1.025-.212,1-.127,1.025-.2,1-.135,1.033-.2.991-.135,1.033-.2,1-.135,1.219-.2,2.024-.339h.6l.593.186h-.11l-1.033.2-1,.135-1.025.2-1,.135-1.025.2-1.135.135-1.033.2-.991.135-1.033.195-1,.135-1.025.2-1,.135-.711.212h-.474l-.533.144h-.652l-.279.161h-.61l-.847.135-1.025.2-1.194.135-.686.2H123.9l-.373.11-.262-.11-.542-.2h-.135Zm3.226.339,1.033-.2.847-.135h.754l.279-.161h.483l.533-.144h.474l.745-.212.974-.135,1.033-.2.991-.135,1.033-.195,1-.135,1.025-.212,1.135-.127,1.025-.2,1-.135,1.025-.2,1-.135,1.033-.2.991-.135h.263l.593-.178.974.263-.686.135-1,.135-1.025.2-1,.135-1.033.2-.991.135-1.033.195-1,.135-1.025.2-1,.135-1.219.2-1.008.135-1.025.2-1,.135-.711.212h-.406l-.6.135H129.9l-.279.169h-.474l-1.042.144-.72.212h-.059l-1.177.127h0l-1-.237Zm2.2.466.974-.127h.55l.279-.169h.406l.6-.135h.415l.737-.212.982-.127,1.025-.2,1-.135,1.219-.2,1.008-.135,1.033-.2.991-.135,1.033-.195.991-.135,1.033-.212,1-.127,1.025-.2,1-.135,1.025-.2.635-.127,1.3.246-.66.093-1.033.2-.991.135-1.228.195-1.008.135-1.025.2-1,.135-1.025.2-1,.135-1.033.2-.991.135-1.033.2-1,.135-1.152.2-1.008.135-.711.212h-.559l-.3.119h-.745l-.279.169h-.415l-.72.144h-.229l-.94.186-.965-.195h0Zm2.21.542h.542l.279-.169h.7l.212-.186h.491l.745-.212.974-.127,1.16-.2,1-.135,1.033-.2,1-.135,1.025-.2,1-.135,1.025-.2,1-.135,1.025-.2,1-.135,1.228-.195,1.008-.135,1.025-.212,1-.127.771-.195,1.135.237-.847.161-1,.135-1.025.2-1,.135-1.025.2-1,.135-1.033.2-.991.135-1.16.2-1.008.135-1.025.2-1,.135-1.025.2-.677.135h-.584l-.432.178h-.576l-.3.119h-.754l-.279.169H133.6l-1.042.144-.906.195-.11.068-.068.068h-.779l-.745-.127-.262-.1Zm2.371.474.982-.127h.567l.279-.169h.7l.3-.119h.584l.423-.186h.5l.72-.135,1.008-.2,1-.135,1.033-.2.991-.135,1.16-.2,1.008-.135,1.025-.2,1-.135,1.025-.2,1-.135,1.025-.2,1-.135,1.033-.195,1-.135h.152l1.694.237-1.406.1h-.313l-1.058.2-1,.135-1.033.2-.991.135-1.033.2-1,.135-1.025.2-1,.135-1.033.2-.991.127-1.025.212-1.2.127-.711.212h-.406l-.6.144H137.7l-.618.22h-.474l-.3.119h-.491l-1.058.2-.677.135-.313.178-.584-.169h-.694l-.254-.1Zm2.151.542,1.016-.2h.517l.3-.119h.432l.618-.22h.39l.6-.144h.415l.737-.212,1.177-.127,1.033-.212.991-.136,1.025-.2,1-.135,1.033-.2.991-.135,1.033-.169.991-.135,1.033-.2,1-.135,1.025-.2h.3l1.583-.169v.22l-.61.1-1.025.2-1,.135-1.025.2-1.194.135-1.033.2-1,.127-1.025.212-1,.127-1.033.212-.991.135-.72.2h-.4l-.6.144h-.415l-.627.22h-.39l-.906.135-.711.212h-.406l-1.042.144-.711.212-.186.11-.576-.119h0a.119.119,0,0,0-.076,0h-.644l-.373-.127Zm2.244.466.9-.144h.44l.745-.22.847-.127h.432l.627-.22h.39l.593-.144h.415l.745-.22.974-.119,1.033-.212,1-.127,1.025-.212,1-.127,1.025-.2,1.2-.135,1.025-.2,1-.135,1.033-.2.576-.1.1.508h-.593l-1.042.135-1.033.212-.991.127-1.033.212-1,.135-1.152.195-1.008.135-1.025.2-1,.135-.711.212h-.474l-.533.152h-.6l-.279.161h-.406l-1.042.144-.906.2-.8.135-.313.178-.415-.161a.237.237,0,0,0-.11,0l-.847-.169Zm2.473.55.9-.2.982-.135h.567l.279-.169h.483l.533-.144h.474l.745-.22.974-.127,1.025-.2,1-.135,1.16-.195,1-.135,1.033-.212,1-.127,1.025-.212,1-.127h.542l-.085.339h-.288l-1.058.2-1,.135-1.16.127-.991.135-1.025.2-1,.135-1.228.2-1,.135-.72.2h-.4l-.6.135h-.533l-.288.169h-.474l-.847.135-.847.212-.3.119-.593-.119h0l-.652-.161Zm2.244.466.8-.127h.618l.288-.169h.406l.593-.144h.423l.737-.212.982-.127,1.219-.2,1.008-.135,1.025-.2,1-.135,1.025-.2,1-.135,1.033-.2h.119v.4h-.1l-1.042.144-1.033.2-.991.135-1.033.2-.677.135h-.423l-.618.22h-.4l-.593.144h-.415l-.745.212-1.169.127-.847.212h-.2l-.957.127-1.228-.178Zm11.33-6.283v-5.758l.33-30.382V159.126l.135-10.534,1.761.271.135,10.737v11.008l-.33,6.918-.313.093a.084.084,0,0,0-.068.042h0a.3.3,0,0,0-.051.119h0l-.2,29.061Zm.313-58.428-.3-.178h-.127l-2.1-.347-.288-.119-2.608-.55-2.54-.474-2.193-.533h-.042l-2.363-.339-.66-.135-1.152-.279.178-2.964h.085L156.53,145.7v2.947h-.237l-.627-.135Zm2.54.889-.152,3.031V149Zm-.059,10.627.533-10.585h0l.195,4.031-.2,10.585v12.1l-.3,1.456h-.246ZM109.457,114.9l-.7.161-.8.135-2.54-.135a.22.22,0,0,0-.127,0h0l-2.168,1.016-4.6.618-.119-3.319,6.546-3.59,4.581.957Zm-11.364-1.838-.8.152,5.733-2.871Zm6.91-3.819h-1.05l-7.088,3.548v-2.54l1.414-.8h0l5.809-2.8,5.343,1.092.119,2.413Zm-6.571-.364.119-2.54,10.873-5.5v5.927l-5.343-.644a.178.178,0,0,0-.127,0Zm11.008-8.544-11.228,5.682-.915.127,12.168-6.215ZM98.068,106.5l-.119,2.625-1.44.847-.119.2v3l-.119.3a.229.229,0,0,0,0,.237.22.22,0,0,0,.22.076l1.423-.279.127,3.438v1.694l-1.694,1.143-.11.212.135,2.8a.288.288,0,0,0,0,.085.2.2,0,0,0,.051.093h0a.347.347,0,0,0,.093.059h.093l1.3-.119.127,4.081-1.981.491h-.246l-.127-20.433L96,106.82ZM79.82,150.531l-5.656-1.16,4.894-.8.982.279-.178.076a.22.22,0,0,0-.144.237Zm0,.483-.068.542-8.586-1.694,1.694-.254Zm0,1.033.051.068v.313l-10.83-2.2.279-.186h.44Zm-4.725.576h0l-7.553-1.55.991-.474,11.347,2.312v.669Zm4.776,1.431v.4l-5.665-1.109.847-.246Zm-13.159-3.108h0l-.279.135,2.337-1.194-.44.288h0Zm-4.065,2.591.779-.415,2.93,1.49.356.144.3.186.373.152.3.186.373.152.3.186.364.152.3.186.373.152,1.118.66,1.363.677.322.195.373.152.3.186.373.152.3.186.364.152.3.186.373.152.3.186.373.152.3.178.373.161.3.178.364.152.991.533.364.144.3.186.373.152.3.186.373.152.3.186.373.152.279.169h0l.22.237v4.632l-.135,2.684v20.069l-.2,2.684v2.718l-17.782,2.76Zm17.8,7.723-.3-.178-.373-.152-.3-.186-.373-.152-.3-.186-.373-.152-.3-.186-.373-.152-.991-.525-.364-.144-.3-.186-.364-.152-.3-.186-.373-.152-.279-.212L74.4,158.2l-.3-.186-.373-.152-.3-.186-.364-.152-.313-.186-.364-.152-.3-.178-1.363-.686-1.135-.669L69.2,155.5l-.3-.186-.373-.152-.3-.186-.373-.152-.3-.186-.373-.152-.3-.178-.373-.161-2.6-1.329,2.879-1.44,7.231,1.482-.915.271a.246.246,0,0,0-.169.237.076.076,0,0,0,0,.042l.127,1.126a.263.263,0,0,0,.195.2l5.885,1.177v.618a.237.237,0,0,0,0,.076l.195,1.177a.237.237,0,0,0,.237.195h.906v3.26Zm-.847-4.42.8.119-.076.576h-.61Zm-.059-.491v-.339l.847.085v.39Zm-.186-.847-5.927-1.177-.076-.66,6.469,1.3v.279a.254.254,0,0,0,.068.169.237.237,0,0,0,.169.068h.39l.059.144h0Zm.948-.542h-.085v-1.084a.068.068,0,0,0,0-.059v-1.092a.051.051,0,0,0,0-.051v-.779l-.085-.127.127-.923a.119.119,0,0,0,0-.076l-.119-1.5.322-.135v3.9Zm-1.38-6.884h0l-6.1,1.025-2.329.356,2.235-1.109,7.951-1.329-.127.762Zm23.54,57.539h.847l.635.127h.559l1.075.313h.406l.457.186h0a.22.22,0,0,0,0,.229.229.229,0,0,0,.2.119h.669l1.838.33h0l2.329.466h0l1.008.195,1.346.339h.144l.3.119h.889l1.16.322h0l2.54.542h0l2.329.466h0l2.235.339,2.473.533h0l.847.135,1.448.33h0l1.016.195h0l1.329.33h.059l1.694.144h.652l.127.2h0a.186.186,0,0,0,.085.076l.313.186h.779l1.3.33h.1a.135.135,0,0,0,.076,0l.4-.161,1.55.3.271.271a.288.288,0,0,0,.135.085l1.008.195h0l1.338.135,2.066.288v.059a.246.246,0,0,0,0,.229.263.263,0,0,0,.2.1h.44l1.88.33h0l1.473.2.847.271v.356l-2.21-.415-2.371-.339-2.54-.669-2.4-.347-2.346-.533-2.363-.474-4.725-1.016-4.861-1.008-2.379-.347-2.346-.533-7.3-1.49-4.725-1.008-2.379-.339L102.7,206l-.263-.525Zm.1,3.853,43.931,9.052-1.643.262h-.39l-.3-.119h-.288l-.771-.186-.9-.144-.8-.195-.847-.169-.8-.195-.3-.127h-.593l-.279-.169h-.567l-.288-.119h-.559l-.279-.169h-.567l-.3-.119h-.55l-.279-.169h-.567l-.635-.127-.847-.2-.847-.135-.847-.2-.847-.135-.847-.195-.686-.144-.8-.195-.906-.144-.787-.195-.889-.144-.8-.195-.9-.144-.787-.195-.906-.135-.787-.2-.9-.135-.787-.195-.9-.144-.8-.195-.9-.144-.787-.195-.9-.144-.644-.195-.847-.144-.847-.195-.847-.135-.847-.2-.847-.135-.847-.2-.847-.135-.847-.2-.847-.135-.847-.2-.847-.135-.847-.195-.847-.144-.847-.195-.847-.144-1.431-.3Zm39.384,11.44,5.927-.94v2.422l-6.122.94Zm0-.483v-.33l3.158-.508h0l3.15-.44.051.3h-.195Zm32.88-4.784.339-24.209h.618l11.6,2.456-.2,16.682a.246.246,0,0,0,.076.178.237.237,0,0,0,.169.068h.5L219.9,217.5l-44.473,7.359h-.6Zm.644,9.687,91.385,18.553-.135,7.96-91.706-18.477-.186-8.011Zm1.3-.212,44.447-7.35h0l1.211-.2h.076l5.275-.779h.059l7.621-1.49v2.752a.237.237,0,0,0,.2.237l2.227.339a.33.33,0,0,0,.178-.051.229.229,0,0,0,.093-.169l.135-2v-1.355l1.033-.288h.059l.3-.178,27.046-4.573.135,33.329Zm77.2-18.8-15.691-43.846,28.909,5.758V193.92h0l-.339,15.03Zm-16.03-44.388-.652-.195h0l-44.422-8.908h0l-15.665-3.243-5.885-1.118.127-5.081,94.12,18.849.8.195.542.135.491.152-.186,5.081ZM327.071,225.9v-.847l.728.152.652.127.508.195v.66Zm78.666-70.376v-4.344l.169-1.431,1.914.44-.178,6.469-1.694,1.456Zm2.379.7.178-5.927,2.227.39-.195,3.709h0l-.931.847-.152.144-.491.3Zm4.293-2.947h-.059l-1.533.711.169-3.243,7.113,1.567Zm-1.592-3.031-2.71-.474-2.295-.525-1.914-1.694.982.415.423.483a.212.212,0,0,0,.144.093l11.609,2.354h.55l.3.119h.559l.279.161.119.042h.432l.3.119h.415l.491.186h.483l.144.1.135.042h.347l-2.236.39ZM390.275,139.8v1.8l-1.905-.432-.178-1.829.161-.847h0Zm-2.363-6.1.119,4.014-.517-.068.288-4.039Zm0,4.479v.051l-.152.754-.263-.135v-.728Zm-.068,2.938h-.195l-.144-1.694.178.085Zm-27.3,4.835,12.888-20.585,10.424-1.626-.2,18.29-21.415,3.683-1.135.135Zm23.549-3.921.195-18.375.212-.042V142.1Zm.406-18.9-.491.1-10.263,1.6,2.227-3.319,8.6-1.482Zm-.66-3.717-7.46,1.245,1.423-2.718,6.325-1.084Zm-8.1,1.44h0l-.178.3h0l-2.5,3.853h0l-13.15,21.11h-.127a.3.3,0,0,0-.093.11l-.7.847h-.517l-.432.178h-.491l1.744-2.32,16.5-26.8,1.456-.246Zm-20.653,4.234-.288,2.913-.5.152h0l-36.589,5.784,2.024-3.184Zm-.644-.847-34.295,5.631,1.626-2.854,32.694-5.335Zm-34.93,5.8a.313.313,0,0,0-.042.093l-.119.288h0l-2.346,3.675-13.354,21.1h0l-.135.474-.44.525-1.99.3,2.642-3.455,15.691-25.6,1.744-.39Zm-19.281,26.377-.711-.11-.178-1.507v-.051Zm-.948.339.466.068-12.465,2.058a.279.279,0,0,0-.119,0l-1.838-.093,11.008-1.8h.847l1.643-.195Zm-8.942-17.782,7.384-1.126-.195,12.939-4.971-8.265-.847-.737Zm7.621,12.583.195-13.786.212-.042v14.505Zm.406-14.311-.491.093-7.951,1.219-3.387.677h-.33l-15.5,2.456v-2.82l13.946-2.329h0l3.387-.474,10.525-1.643Zm-14.861-1.329-12.888,2.388.195-14.819,6.732,4.361,2.439,2.117Zm-2.54-5.259.254.186,2.9,5.081h-.059Zm17.088,2.871-9.975,1.956-1.507-2.54,11.542-1.922Zm-10.483,2.041-2.862.4-2.65-4.615,2.6,1.567h1.329ZM10.444,75.312,143.591,37.266l.119-.076a1.253,1.253,0,0,1,1.042-.449c1.253,0,3.438,1.236,6.393,3.777l-10.39,3.048-1.118.195h-.051l-2.346.8-24.294,6.952-1.169.152-2.422.847L86.281,59.054l-1.313.195h-.059l-1.177.33h0l-2.363.669a.246.246,0,0,0-.169.229v3.175Zm72.95,13.379h0v3.387h0l-.33,18.858-1.77-.3v-.474l.339-46.243h0V60.713l1.88-.533-.127,2.71h0l.339,6.207-.339,19.569Zm.466,3.709.55.178V110.4l-.237.237-.288.119h-.059l-.254.152h0Zm0-.5V88.987L96.4,91.528h0l2.828.677h.593l8.874,1.778v2.9l-6.131-1.1-1.541-.33-2.794-.61h0L84.681,92.18Zm15.022-.3L96.6,91.053l-.288-.457h0L85.875,66.184l-.135-.127-.449-.169-1.456-3.031.127-2.811.847-.237ZM85.333,59.714l.847-.127,14,32-.4.119H99.44ZM95.74,90.41,84.892,88.361l.466-21.949.127.051ZM83.936,64.1l.948,2.024L84.41,88.352l-.533.076.33-19.307Zm.948,28.6,13.1,2.625,2.9,6.647-1.49.9-.322.127-.373.22-.3.119-.373.22-.3.119h0l-.432.246-.22.085-2.54,1.355-.347.212-.3.119-.373.22-.3.119-.373.22-.3.119-.373.22-.3.119-.364.22-.3.119h-.059l-.271.161-1.152.677-.3.119-.364.22-.3.119-.373.22-.3.119-.373.22-.3.119-.364.22-.3.119-.373.22-.3.11-.373.22-.3.127-.313.178h0Zm13.659,2.727,2.278.44,2.286,5.081-1.8.847Zm2.854.559.965.212,1.626,4.234-.093.093-.254.1H103.5Zm1.516.313,5.826,1.042.085.55-4.234,2.278h-.161Zm-2.235-4.767L86.654,59.477l22.533-6.393-.339,40.053ZM80.828,110.453v.39a.246.246,0,0,0,.2.237l1.744.263-.246.093h0l-.076.051-.042.059-.152.144h0a.2.2,0,0,0-.093-.051l-3.565-.754ZM47.3,119.319h.059l.66-.135.982-.195h.22l7.7-1.143,2.633,1.321h0l2.134,1.143h0l1.626.974-2.024.923-14.3-2.888Zm-3.184-.135.762.127.669.2h0l15.174,3.065-.432.288-.169-.076-.915-.22-.847-.135-.847-.195-.847-.144-.847-.195-.847-.144-.847-.195-.466-.135h-.957l-.61-.195h-.2l-.627-.127h-.178l-.406-.288-.135-.051H49.531l-.61-.186H48.65l-.627-.127h-.178l-.61-.186h-.271l-.627-.135h-.186l-.6-.195H45.28l-.627-.135h-.085l-.135-.135-.127-.068-.847-.135-.652-.152Zm-4.141.711,1.888.3h.356l.483.127h.347l.432.186h.423l.483.135.525.076.254.11h.6l.279.11h.559l13.345,2.676h.254L109.424,98.53l32.178,6.4h.474l.3.119h.567l.279.169h.55l.3.119h.559l.279.169h.55l.3.119h.559l.254.144a.2.2,0,0,0,.152.059h.423l.3.119H148l.279.169h.525l.135.093h.686l.068.1.195.1h.339l.474.127h.356l.423.178h.432l.483.127h.347l.432.186h.423l.483.127h.347l.415.178a.237.237,0,0,0,.11,0h.313l.457.119v.7l-2.21-.474-1.016-.135h0l-1.871-.33-14.294-2.549-2.54-.474-2.354-.533-16.682-3.387-2.54-.474-2.337-.533a.144.144,0,0,0-.085,0,.169.169,0,0,0-.11,0l-13.819,7.079h0l-.474.339-2.329,1.194-14.853,7.562h0l-.322.186-2.54,1.346h0l-15.225,7.6-2.286-.457-3.387-.677-8.908-1.888-.9-.144-2.481-.533-2.176-.44Zm12.846,11.44h-.119L45.3,129.8l3.624.652h0Zm-2.659-1.084,7.2-1.228-.152,1.245-2.3,1.058Zm2.49,1.55h2.379l2.142-.982v2.65l-2.49,1.126-.94-.186-9.255-1.829-1.3-.322v-2.422Zm3.607,8.307L50.107,138.7l7.088-1.109v2.134Zm.931.127v1.016l-.94-.635.11-.042h0Zm-3.717.11-10.449.1.11-2.176Zm-4.623-1.922-4.132-.762.1-.957,9.95-1.694h.635l.906-.2.847-.11v2.371Zm-4.141-5.343,7.79,1.567-7.7,1.592Zm-.483-5.021v1.135l-1.338.119a.237.237,0,0,0-.212.22v2.921a.237.237,0,0,0,.186.229l1.372.3.127,3.514-.11,1.143-1.363.119a.229.229,0,0,0-.212.22h0l-.135,2.676a.237.237,0,0,0,.178.262h0l.8.2.686.135.161.11.178,1.456-.263.262a.229.229,0,0,0-.059.119h0v1.431l-2.092-.44.212-22.787,2.024.432Zm.279,12.854,11.161-.119,1.558,1.058.076.262L44.67,141h0Zm12.812,1.694-.085.3-.567.288h-.051l-.246.144-1.058-.186h0l-5.03-1.008-.762-.246Zm-9.391-.533-2.921.584-.127-1.152ZM44.7,143.478l5.5-.847,3.777.754-8.713,1.423h0l-.533-.093Zm10.568.169,1.109.195h.161l.279-.169H57.4v3.675l-10.873-2.252Zm-6.317-13.659h0l-4.234-.779v-.771h12.7v.1Zm5.513-4.234-9.755,2.015.119-5.851.576.093Zm-6.52-3.218,6.359,1.346,2.71,1.465-1.694.237Zm-1.279,5.419L57.4,126.263v1.694Zm7-1.558,1.643-.339,2.142-.288v.042Zm2.219-2.185,1.643.33v.559Zm-15.919-3.294,1.9.381-.2,22.812-2.024-.373Zm-2.21,29.239.313-5.809,20.67,4.166-.186,5.927-1.067-.271-12.981-2.54-2.7-.474-2.354-.533Zm19.476,4.429L56.9,198.417l-12.49,2.092.339-48.393Zm-12.964-2.54-.33,48.546-2.235.279.339-49.215Zm-4.928,48.546.339-49.46,1.812.449-.33,49.3Zm-1.236,4.336a11.244,11.244,0,0,1-3.734-.474c-.8-.313-1.1-.7-1.109-1.219a2.09,2.09,0,0,1,0-.3l122.681,24.743,5.369,1.092-2.752.457Zm228.309,55.65L139.044,234.854l-1.812-.483.085-.847,129.185,26.1ZM138.392,233.211l20.221-3.5h0l4.048-.677a.231.231,0,0,0,.008-.457l-6.613-1.355L34.348,202.667l7.147-1.312h0l2.684-.339h0l12.7-2.117v5.462a.246.246,0,0,0,.2.237l2.346.33h.085l2.7-.339a.237.237,0,0,0,.2-.237v-6.41L80.2,195.173v6.148a.229.229,0,0,0,.195.22l21.694,4.369.262.533v2.591l-2.54.618H99.3l-3.057.339a.288.288,0,0,0-.119,0h0l-.457.33a.262.262,0,0,0-.11.144h0l-.2.847a.212.212,0,0,0,.042.186.237.237,0,0,0,.152.1l.677.11V214.4a.246.246,0,0,0,.161.229l1.016.339,44.033,8.781h.093l6.622-1.016h0l10.39-1.694,15.767,3.125v.847h0l.2,8.468a.229.229,0,0,0,.186.22l92.206,18.646h.1l42.17-6.774h.847l8.595-1.346,7.867,1.516v3.311a.254.254,0,0,0,.186.237l.415.076-60.35,9.8Zm297.948-.339L266.882,260.6l.093-1.025,61.188-9.9v.262a.246.246,0,0,0,.195.229l.677.135h.1l2.684-.669,7.418-1.152,1.736-1.025,83.975-13.684.618.186h.1l2.5-.339a.262.262,0,0,0,.186-.152l.152-.415,7.833-1.279Zm-8.468-49.232.55-.119-.339,46.3h0v3l-.135.364-2.083.279.127-6.673h0Zm-1.821,30.975.144-30.645,1.2-.237Zm9.2,16.868-6.7,1.092v-2.464Zm-5.081-54.5.127,5.64-.559.186-.3-5.741Zm-1.211.144.322,5.809-.61.1-1.016.2-1.694.339-.847.127-1.482.2-9.12,1.49-3.116.5-.186-3.345,3.446-3.116ZM427.55,152.64a.161.161,0,0,0,.085,0l.432-.152h.542v.584l-2.312.5-5.453.737Zm-1.973-.779-.288.11h-.635a.229.229,0,0,0-.1,0l-.847.186-1,.127-1.025.212h-.855l-.288.119h-.754l-.339.2-.474.11h-1.008l-1,.195-1,.135h0l-1.008.2-.677.135h-.745l5.885-.982h0l3.031-.542h0l.542-.127h.051l.737-.178h1.973Zm-17.122-4.141,8.188,1.694.847.2.847.135.847.195.847.144.847.195.847.135,3.743.889h-1.431l-.3-.119-.694-.212h-.406l-.483-.127h-.525l-.61-.186-.55-.135h-.533l-.6-.195-.55-.135h-.533l-.61-.195-.55-.135h-.474l-.279-.169h-.618l-.279-.11a.228.228,0,0,0-.1,0h-.415l-.263-.152a.2.2,0,0,0-.135-.051h0l-.483-.135-.847-.2H412.6l-.627-.135-.8-.195-.9-.144-.788-.195-.9-.144-.644-.195-.491-.1.449-.11ZM387.93,129.15l.279.169.195.127,1.651,1.694.5.364.178.178,1.694,1.694.347.161.093.144,1.694,1.694.584.373.093.1,1.694,1.694.584.364,1.778,1.863.423.186.119.152,1.694,1.694.5.364,1.863,1.8.381.237.085.1,1.694,1.694.584.373.847,1.016-.965.237H406.3l-18.477-17.156v-1.355Zm75.49-25.725-.364.152-75.44,12.278-3.175.533h0l-6.774,1.143-2.032.339-4.581.677h0l-1.126.195-1.008.135-11.008,1.9-3.15.466h0l-33.092,5.4-2.371.542-4.581.677-13.261,2.125-2.49.339-.711.212-12.126,2.015h-1l.847-2.93,178.095-29.163Zm5.225-4.09-4.183.652h0L286.384,129.133h0L468.611,99.081ZM196.43,94.449a.229.229,0,0,0-.237.229v4.734a.229.229,0,0,0,.068.161.237.237,0,0,0,.169.068.271.271,0,0,0,.169-.068.229.229,0,0,0,.068-.161V94.678a.237.237,0,0,0-.271-.271Zm-.44,22.99v4.386l.068.169.2.2a.237.237,0,0,0,.169.068.169.169,0,0,0,.093,0,.246.246,0,0,0,.144-.229l-.2-2.7v-1.871a.237.237,0,1,0-.474,0Zm.1,55.667h-.2a.246.246,0,0,0-.237.237v6.08a.246.246,0,0,0,.237.237.237.237,0,0,0,.237-.229l.2-6.08a.237.237,0,0,0-.068-.169.229.229,0,0,0-.2-.119Zm197.977-.542h-.474a.246.246,0,0,0-.237.237.237.237,0,0,0,.237.237h.474a.237.237,0,0,0,.237-.237.246.246,0,0,0-.271-.279Zm-1.346.542a.229.229,0,0,0-.22.152l-.135.339a.212.212,0,0,0,0,.22.237.237,0,0,0,.195.1h.474a.246.246,0,0,0,.2-.119h0l.195-.33a.237.237,0,0,0,0-.237.246.246,0,0,0-.212-.119Zm-1.016.847a.237.237,0,0,0-.22.152l-.135.339a.237.237,0,0,0,0,.186h-.076l-.847.339a.231.231,0,0,0-.008.432l.457.195a.28.28,0,0,0,.11,0,.229.229,0,0,0,.2-.119h0l.33-.533a.228.228,0,0,0,0-.22h.542a.22.22,0,0,0,.152-.11h0l.195-.313a.237.237,0,0,0,0-.237.229.229,0,0,0-.2-.119Zm3.387-2.159H394.6a.237.237,0,1,0,0,.466h.474a.237.237,0,1,0,0-.466ZM192.806,160.506a.254.254,0,0,0,0,.195l.135.33a.237.237,0,0,0,.22.152h.085a.229.229,0,0,0,.135-.3l-.135-.339a.246.246,0,0,1-.2-.339l-.135-.339a.246.246,0,0,0-.3-.135.254.254,0,0,0-.135.313l.135.339a.229.229,0,0,0,.2.127Z" transform="translate(-0.018 -0.05)"/>
</svg>
